<?xml version="1.0" encoding="utf-8"?>
<!-- Generator: Adobe Illustrator 23.0.1, SVG Export Plug-In . SVG Version: 6.00 Build 0)  -->
<svg version="1.1" id="Layer_1" xmlns="http://www.w3.org/2000/svg" xmlns:xlink="http://www.w3.org/1999/xlink" x="0px" y="0px"
	 width="79px" height="78.1px" viewBox="0 0 79 78.1" style="enable-background:new 0 0 79 78.1;" xml:space="preserve">
<style type="text/css">
	.st0{fill:#19204B;}
	.st1{fill:#EA434A;}
	.st2{fill:#FFFFFF;}
	.st3{fill:#6190CB;}
</style>
<g>
	<path class="st1" d="M39.5,6.6c1.8,0,3.3-1.5,3.3-3.3c0-1.8-1.5-3.3-3.3-3.3c-1.8,0-3.3,1.5-3.3,3.3C36.2,5.1,37.7,6.6,39.5,6.6z
		 M39.5,2.1c0.7,0,1.2,0.5,1.2,1.2c0,0.7-0.5,1.2-1.2,1.2c-0.7,0-1.2-0.5-1.2-1.2C38.3,2.6,38.8,2.1,39.5,2.1z"/>
	<path class="st1" d="M40.6,67.6V16.1c0-0.6-0.5-1.1-1.1-1.1c-0.6,0-1.1,0.5-1.1,1.1v51.5c0,0.6,0.5,1.1,1.1,1.1
		C40.1,68.6,40.6,68.2,40.6,67.6z"/>
	<path class="st1" d="M29.6,72.1c0,0.6,0.5,1.1,1.1,1.1h17.7c0.6,0,1.1-0.5,1.1-1.1c0-0.6-0.5-1.1-1.1-1.1H30.6
		C30.1,71.1,29.6,71.6,29.6,72.1z"/>
	<path class="st1" d="M53.9,76H25.1c-0.6,0-1.1,0.5-1.1,1.1c0,0.6,0.5,1.1,1.1,1.1h28.7c0.6,0,1.1-0.5,1.1-1.1
		C54.9,76.5,54.5,76,53.9,76z"/>
	<path class="st1" d="M79,56.1c0-0.1,0-0.1,0-0.2c0,0,0,0,0,0L66,12.8c2.5-0.9,3.3-3.5,3.3-5c0-0.6-0.5-1.1-1.1-1.1
		c-0.6,0-1.1,0.5-1.1,1.1c0,0.3-0.1,3.2-3.2,3.2c-1,0-2.8-0.4-4.9-0.9c-5.8-1.4-14.4-3.5-19.6,0.8c-5.1-4.3-13.8-2.2-19.6-0.8
		c-2.1,0.5-3.9,0.9-4.9,0.9c-1.3,0-2.3-0.5-2.8-1.5c-0.4-0.8-0.5-1.7-0.5-1.7c0-0.6-0.5-1-1.1-1c-0.6,0-1.1,0.5-1.1,1.1
		c0,1.5,0.7,4.1,3.3,5L0,55.8l0,0c-0.1,0.3,0,0.6,0.1,0.9c3.1,4.8,8.3,7.7,14,7.7c5.7,0,11-2.9,14-7.7c0,0,0,0,0,0c0,0,0,0,0,0
		c0.1-0.1,0.1-0.2,0.1-0.3c0,0,0,0,0,0c0-0.1,0-0.1,0-0.2c0,0,0,0,0,0c0-0.1,0-0.1,0-0.2c0,0,0,0,0,0L15.5,13.1
		c1.2-0.1,2.9-0.5,4.9-1c5.6-1.4,14.1-3.4,18.3,0.9c0,0,0,0,0,0c0,0,0,0,0,0c0,0,0,0,0.1,0c0,0,0.1,0.1,0.1,0.1c0,0,0.1,0,0.1,0
		c0,0,0.1,0,0.1,0.1c0,0,0.1,0,0.1,0c0,0,0.1,0,0.1,0c0.1,0,0.1,0,0.2,0c0,0,0,0,0,0c0,0,0,0,0,0c0,0,0,0,0,0c0,0,0,0,0,0
		c0.1,0,0.1,0,0.2,0c0,0,0.1,0,0.1,0c0,0,0.1,0,0.1,0c0,0,0.1,0,0.1-0.1c0,0,0.1,0,0.1,0c0,0,0.1,0,0.1-0.1c0,0,0,0,0.1,0
		c0,0,0,0,0,0c0,0,0,0,0,0c4.2-4.4,12.7-2.3,18.3-0.9c2,0.5,3.6,0.9,4.9,1L50.6,55.8l0,0c-0.1,0.3,0,0.6,0.1,0.9
		c3.1,4.8,8.3,7.7,14,7.7c5.7,0,11-2.9,14-7.7c0,0,0,0,0,0c0,0,0,0,0,0c0-0.1,0.1-0.1,0.1-0.2c0,0,0,0,0,0c0-0.1,0-0.1,0-0.2
		c0,0,0,0,0,0C79,56.2,79,56.1,79,56.1C79,56.1,79,56.1,79,56.1z M14.2,62.3c-4.3,0-8.3-1.9-11.1-5.1h22.2
		C22.5,60.4,18.5,62.3,14.2,62.3z M26,55.1H2.5L14.2,16L26,55.1z M64.8,62.3c-4.3,0-8.3-1.9-11.1-5.1h22.2
		C73.1,60.4,69.1,62.3,64.8,62.3z M53.1,55.1L64.8,16l11.7,39.1H53.1z"/>
</g>
</svg>
