<?xml version="1.0" encoding="utf-8"?>
<!-- Generator: Adobe Illustrator 23.0.1, SVG Export Plug-In . SVG Version: 6.00 Build 0)  -->
<svg version="1.1" id="Layer_1" xmlns="http://www.w3.org/2000/svg" xmlns:xlink="http://www.w3.org/1999/xlink" x="0px" y="0px"
	 width="94.7px" height="83.8px" viewBox="0 0 94.7 83.8" style="enable-background:new 0 0 94.7 83.8;" xml:space="preserve">
<style type="text/css">
	.st0{fill:#FFFFFF;}
	.st1{fill:#EA434A;}
	.st2{fill:#19204B;}
	.st3{fill:#6190CB;}
</style>
<g>
	<path class="st1" d="M0,55.9c1.1,0.3,1.3-0.5,1.6-1.1c4.3-8.6,8.7-17.2,13-25.8c0.1-0.2,0.2-0.4,0.3-0.7c-0.2-0.1-0.4-0.2-0.6-0.2
		c-1.5-0.6-2.4-2-2.3-3.7c0.1-1.5,1.1-2.9,2.5-3.4c1.5-0.5,3.1-0.1,4.1,1.2c0.4,0.5,0.8,0.5,1.3,0.5c3.9-0.4,7.3-2.1,10.5-4.2
		c2.7-1.8,5.6-3.5,8.8-4.3c8-2,15.8-1.4,23,3c1.8,1.1,3.6,2.2,5.4,3.3c2.3,1.3,4.7,1.9,7.3,2.2c0.4,0,0.6,0,0.9-0.4
		c1.1-1.4,2.6-1.9,4.2-1.4c1.5,0.5,2.5,1.9,2.6,3.5c0,1.6-0.9,2.9-2.5,3.6c-0.1,0.1-0.3,0.1-0.5,0.2c0.6,1.3,1.3,2.5,1.9,3.8
		c3.9,7.7,7.7,15.3,11.6,23c0.3,0.6,0.6,1.1,1.6,0.8c-0.2,0.7-0.3,1.3-0.6,1.9c-0.6,1.2-1.5,2-2.6,2.7c-2.6,1.6-5.5,2.4-8.5,2.8
		c-4.6,0.6-9.1,0.3-13.5-1.2c-1.9-0.7-3.7-1.6-5.1-3.1c-0.8-0.8-1.3-1.8-1.3-3c1,0.3,1.3-0.4,1.6-1.1c4.3-8.6,8.6-17.2,13-25.7
		c0.1-0.2,0.2-0.4,0.3-0.7c-1.5-0.1-2.9-0.2-4.3-0.3c-4-0.4-7.6-1.9-11-4c-2.3-1.4-4.7-2.7-7-4c-0.3-0.2-0.6-0.2-1-0.4
		c-1.7,15.6-3.4,31.2-5,46.9c0.6,0,1.1,0,1.6,0c1.4,0,2.8,0,4.2,0c0.7,0,0.9,0.3,0.9,0.9c0.1,1.4,0,2.8,0.3,4.1
		c0.9,3.2,3.1,5.1,6.4,5.6c0.2,0,0.4,0.1,0.7,0.1c0,2.1,0,4.2,0,6.4c-11,0-22,0-33,0c0-2.1,0-4.2,0-6.4c0.4-0.1,0.9-0.1,1.3-0.2
		c3.6-0.8,6-3.9,6.1-7.6c0-0.7,0-1.4,0-2.1c0-0.7,0.3-0.9,0.9-0.9c1.8,0,3.5,0,5.3,0c0.1,0,0.3,0,0.5,0c-1.7-15.6-3.4-31.2-5-46.9
		c-1.9,0.6-3.6,1.6-5.2,2.6c-2.3,1.3-4.5,2.8-6.9,3.9c-3.2,1.5-6.7,2-10.2,2.1c-0.3,0-0.6,0-1,0c0.1,0.3,0.2,0.5,0.4,0.8
		C21.3,37.7,25.6,46.3,30,55c0.3,0.6,0.5,1.3,1.4,0.9c0.1,1-0.2,1.7-0.7,2.4c-0.8,1.2-1.9,2-3.1,2.7c-2.8,1.5-5.9,2.2-9,2.5
		c-4.5,0.4-8.9,0-13.1-1.7c-1.7-0.7-3.2-1.5-4.4-2.9C0.5,58,0,57.1,0,55.9z M28.2,55.9c-4.2-8.3-8.3-16.5-12.5-24.8
		c-4.2,8.3-8.3,16.5-12.5,24.8C11.6,55.9,19.8,55.9,28.2,55.9z M91.3,55.9c-4.2-8.3-8.3-16.5-12.5-24.8c-4.2,8.3-8.3,16.5-12.5,24.8
		C74.7,55.9,83,55.9,91.3,55.9z"/>
	<path class="st1" d="M41.4,6.2C42.7,6,44,5.7,45.3,5.6c2.4-0.2,4.7,0,7.1,0.4c0.7,0.1,0.8,0.4,0.7,1.1c-0.6,2.7-2.9,4.6-5.7,4.7
		c-2.7,0.1-5.2-1.8-5.8-4.5C41.5,7,41.5,6.7,41.4,6.2z"/>
	<path class="st1" d="M52.7,3.7c-1.8-0.1-3.6-0.4-5.5-0.4c-1.8,0-3.6,0.3-5.3,0.4c0.5-1.9,2.8-3.6,5.2-3.7
		C49.6-0.1,52.1,1.5,52.7,3.7z"/>
</g>
</svg>
