<svg version="1.1" id="sm" xmlns="http://www.w3.org/2000/svg" xmlns:xlink="http://www.w3.org/1999/xlink" x="0px" y="0px"
	 width="24.1px" height="28.9px" viewBox="0 0 24.1 28.9" style="enable-background:new 0 0 24.1 28.9;" xml:space="preserve">
<style type="text/css">

</style>
<path id="YouTube_2_" class="sm-st0" d="M20.5,21.2h-1.6l0-0.9c0-0.4,0.3-0.7,0.7-0.7h0.1c0.4,0,0.7,0.3,0.7,0.7L20.5,21.2z M14.6,19.2
	c-0.4,0-0.8,0.3-0.8,0.6v4.5c0,0.3,0.4,0.6,0.8,0.6c0.4,0,0.8-0.3,0.8-0.6v-4.5C15.4,19.4,15,19.2,14.6,19.2z M24.1,16.6v8.5
	c0,2-1.6,3.7-3.8,3.7H4.1c-2.2,0-4.1-1.7-4.1-3.7v-8.5c0-2,1.9-3.8,4.1-3.8h16.2C22.5,12.8,24.1,14.6,24.1,16.6z M5.2,26l-0.1-8.9
	l1.9,0v-1.3l-5.1,0v1.3l1.6,0V26H5.2z M11.2,18.6H9.6v4.6c0,0.7,0,1-0.1,1.2c-0.1,0.4-0.8,0.8-1,0c0-0.1,0-0.4,0-1.1l0-4.7H6.9
	l0,4.7c0,0.7,0,1.2,0,1.5c0,0.4,0,0.9,0.4,1.2c0.8,0.5,2.2-0.1,2.6-0.9l0,1l1.4,0V18.6z M16.5,23.9l0-4c0-1.5-1.1-2.4-2.7-1.2l0-3
	l-1.7,0l0,10.2l1.4,0l0.1-0.6C15.4,27,16.5,25.9,16.5,23.9z M21.8,23.4l-1.3,0c0,0,0,0.1,0,0.2v0.7c0,0.4-0.3,0.7-0.7,0.7h-0.2
	c-0.4,0-0.7-0.4-0.7-0.7v-0.1v-0.8v-1h2.9v-1.1c0-0.8,0-1.6-0.1-2c-0.2-1.4-2.2-1.7-3.2-0.9c-0.3,0.2-0.5,0.5-0.7,0.9
	c-0.1,0.4-0.2,1-0.2,1.7v2.4C17.6,27.4,22.4,26.8,21.8,23.4z M15.3,10.5c0.1,0.2,0.2,0.4,0.4,0.5c0.2,0.1,0.4,0.2,0.7,0.2
	c0.2,0,0.5-0.1,0.6-0.2c0.2-0.1,0.3-0.4,0.5-0.7l0,0.6h1.7V3.2H18v6.1c0,0.3-0.3,0.6-0.6,0.6c-0.3,0-0.6-0.3-0.6-0.6V3.2h-1.6v5.3
	c0,0.7,0,1.1,0.1,1.4C15.2,10.1,15.3,10.3,15.3,10.5z M9.6,6c0-0.8,0.1-1.4,0.2-1.8c0.1-0.4,0.4-0.8,0.7-1c0.3-0.3,0.8-0.4,1.3-0.4
	c0.4,0,0.8,0.1,1.1,0.3c0.3,0.2,0.6,0.4,0.7,0.7C13.8,4,14,4.3,14,4.5c0.1,0.3,0.1,0.7,0.1,1.3v2c0,0.7,0,1.3-0.1,1.6
	c-0.1,0.3-0.2,0.7-0.4,1c-0.2,0.3-0.4,0.5-0.7,0.7c-0.3,0.1-0.6,0.2-1,0.2c-0.4,0-0.8-0.1-1.1-0.2c-0.3-0.1-0.5-0.3-0.7-0.5
	C10,10.3,9.8,10,9.8,9.7C9.7,9.3,9.6,8.8,9.6,8.1V6z M11.2,9.2c0,0.4,0.2,0.8,0.6,0.8c0.4,0,0.6-0.4,0.6-0.8V5
	c0-0.4-0.2-0.8-0.6-0.8c-0.4,0-0.6,0.4-0.6,0.8V9.2z M6,11.2h1.8l0-6.1L9.8,0H7.9L6.8,3.9L5.7,0H3.8L6,5.2L6,11.2z"/>
</svg>
