<?xml version="1.0" encoding="utf-8"?>
<!-- Generator: Adobe Illustrator 23.0.1, SVG Export Plug-In . SVG Version: 6.00 Build 0)  -->
<svg version="1.1" id="Layer_1" xmlns="http://www.w3.org/2000/svg" xmlns:xlink="http://www.w3.org/1999/xlink" x="0px" y="0px"
	 width="12.1px" height="25.9px" viewBox="0 0 12.1 25.9" style="enable-background:new 0 0 12.1 25.9;" xml:space="preserve">
<style type="text/css">
	.st0{fill:#19204B;}
	.st1{fill:#FFFFFF;}
	.st2{fill:#6190CB;}
</style>
<path id="Facebook_3_" class="st2" d="M2.6,5.1c0,0.7,0,3.5,0,3.5H0v4.3h2.6v12.9h5.5V12.9h3.5c0,0,0.3-2,0.5-4.3c-0.5,0-4,0-4,0
	s0-2.5,0-2.9c0-0.4,0.5-1.1,1.1-1.1c0.6,0,1.8,0,2.9,0c0-0.6,0-2.6,0-4.6c-1.4,0-3.2,0-4,0C2.5,0,2.6,4.5,2.6,5.1z"/>
</svg>
