<?xml version="1.0" encoding="utf-8"?>
<!-- Generator: Adobe Illustrator 23.0.1, SVG Export Plug-In . SVG Version: 6.00 Build 0)  -->
<svg version="1.1" id="Layer_1" xmlns="http://www.w3.org/2000/svg" xmlns:xlink="http://www.w3.org/1999/xlink" x="0px" y="0px"
	 width="304px" height="21.7px" viewBox="0 0 304 21.7" style="enable-background:new 0 0 304 21.7;" xml:space="preserve">
<style type="text/css">
	.st0{fill:#19204B;}
	.st1{fill:#FFFFFF;}
	.st2{fill:#6190CB;}
</style>
<g>
	<g>
		<path class="st0" d="M64.5,0h1.1v1.2c0,0.9-0.5,1.3-1.4,1.3h-1.1V1.3C63.2,0.4,63.6,0,64.5,0z M63.2,5.8c0-0.9,0.5-1.3,1.4-1.3
			h1.1V17h-1.1c-0.9,0-1.4-0.4-1.4-1.3V5.8z"/>
		<path class="st0" d="M72,14.5c0.3,0.3,0.7,0.4,1.2,0.4V16c0,0.6-0.2,0.9-0.8,1c-0.4,0.1-0.8,0.1-1.3-0.1c-0.7-0.3-1.2-0.8-1.6-1.4
			c-0.4-0.7-0.7-1.5-0.7-2.5V1.3c0-0.9,0.5-1.3,1.4-1.3h1.1v13C71.4,13.6,71.6,14.1,72,14.5z"/>
		<path class="st0" d="M84.8,5.5c1.2,1,1.8,2.3,1.8,3.7V17h-0.7c-0.6,0-1.1-0.3-1.4-1c-1,1-2.4,1.4-3.8,1.4c-1.6,0-3-0.5-4.1-1.5
			c-1.2-1-1.8-2.2-1.8-3.7V9.3c0-1.5,0.6-2.7,1.8-3.7c1.2-1,2.5-1.5,4.1-1.5C82.2,4.1,83.6,4.6,84.8,5.5z M80.6,6.6
			c-1,0-1.8,0.3-2.6,0.9c-0.6,0.5-0.9,1.1-0.9,1.8v2.9c0,0.7,0.3,1.3,0.9,1.8c0.7,0.6,1.6,0.9,2.6,0.9s1.8-0.3,2.6-0.9
			c0.6-0.5,0.9-1.1,0.9-1.8V9.3c0-0.7-0.3-1.3-0.9-1.8C82.5,6.9,81.7,6.6,80.6,6.6z"/>
		<path class="st0" d="M104.6,5.8c0-0.9,0.5-1.3,1.4-1.3h1.1v7.7c0,1.6-0.4,2.9-1.3,3.8c-0.9,0.9-2.1,1.4-3.7,1.4
			c-1.6,0-2.8-0.5-3.8-1.6c-1,1.1-2.2,1.6-3.8,1.6c-1.6,0-2.8-0.5-3.7-1.4c-0.9-0.9-1.3-2.2-1.3-3.8V5.8c0-0.9,0.5-1.3,1.4-1.3h1.1
			v7.7c0,0.9,0.2,1.6,0.6,2c0.4,0.4,1,0.6,1.9,0.6c0.8,0,1.4-0.2,1.8-0.7c0.5-0.5,0.7-1.2,0.7-2V5.8c0-0.9,0.5-1.3,1.4-1.3h1.1v7.7
			c0,0.9,0.2,1.5,0.7,2c0.4,0.4,1.1,0.7,1.8,0.7c0.9,0,1.5-0.2,1.9-0.6s0.6-1.1,0.6-2L104.6,5.8L104.6,5.8z"/>
		<path class="st0" d="M121,4.5l-4.9,13.8c-0.1,0.3-0.2,0.6-0.4,0.9c-0.1,0.3-0.2,0.5-0.4,0.8c-0.3,0.5-0.8,0.9-1.4,1.2
			c-0.5,0.2-0.9,0.2-1.3,0.1c-0.5-0.1-0.7-0.5-0.7-1v-1.1c0.3,0,0.6-0.1,0.8-0.2c0.3-0.1,0.5-0.3,0.6-0.6l0.5-1.3
			c-0.8-0.2-1.3-0.6-1.5-1.2l-3.7-10.3c-0.1-0.3-0.1-0.6,0-0.8c0.1-0.2,0.3-0.3,0.7-0.3h1.6l3.7,10.4h0l3.4-9.4
			c0.2-0.6,0.7-0.9,1.3-0.9L121,4.5L121,4.5z"/>
		<path class="st0" d="M131.1,4.7c0.6,0.3,1.1,0.8,1.6,1.3c0.5,0.7,0.7,1.4,0.7,2.2c0,0.7-0.1,1.3-0.4,1.8c-0.3,0.5-0.6,0.9-1.1,1.2
			c-0.4,0.3-0.9,0.6-1.5,0.7c-0.5,0.1-1,0.2-1.6,0.2h-3c-0.2,0-0.4,0-0.5,0c-0.2,0-0.3-0.1-0.4-0.2v1c0,0.6,0.3,1.1,0.9,1.4
			c0.5,0.3,1.1,0.5,1.7,0.5c0.6,0.1,1.2,0,1.8-0.1c0.4-0.1,0.8-0.3,1.2-0.5c0.1-0.1,0.2-0.2,0.3-0.3c0.4-0.4,0.9-0.5,1.5-0.2
			l1.2,0.6c-0.2,0.5-0.5,1-0.9,1.4c-0.6,0.6-1.3,1-2.1,1.3c-0.7,0.3-1.6,0.4-2.4,0.4c-0.7,0-1.4-0.1-1.9-0.2
			c-0.7-0.2-1.3-0.4-1.8-0.8c-0.6-0.4-1.1-1-1.4-1.7c-0.3-0.6-0.4-1.4-0.4-2.1V8.6c0-0.6,0.1-1.2,0.4-1.8c0.4-0.9,1.1-1.6,2.1-2
			c0.9-0.4,1.8-0.6,2.9-0.6C128.9,4.1,130.1,4.2,131.1,4.7z M130.2,9.4c0.4-0.2,0.6-0.6,0.7-1c0-0.5-0.1-0.9-0.5-1.2
			c-0.5-0.4-1.2-0.5-1.8-0.6c-0.7,0-1.4,0-1.9,0.1c-0.5,0.1-0.9,0.3-1.3,0.6c-0.4,0.3-0.6,0.7-0.6,1.2v1.2h4.1
			C129.5,9.7,129.9,9.6,130.2,9.4z"/>
		<path class="st0" d="M135.6,8.9c0-1.5,0.5-2.6,1.4-3.4c0.8-0.7,1.7-1,2.8-1h1.6v1.1c0,0.9-0.4,1.4-1.3,1.4h-0.3
			c-0.4,0-0.8,0.1-1.2,0.4c-0.4,0.3-0.6,0.8-0.6,1.5V17H137c-0.9,0-1.4-0.4-1.4-1.3L135.6,8.9L135.6,8.9z"/>
		<path class="st0" d="M157.8,7.2c-0.4-0.4-1-0.6-1.9-0.6c-0.8,0-1.4,0.2-1.8,0.7c-0.5,0.5-0.7,1.2-0.7,2V17h-1.1
			c-0.9,0-1.4-0.4-1.4-1.3V9.3c0-0.8-0.2-1.5-0.7-2c-0.4-0.5-1.1-0.7-1.8-0.7c-0.9,0-1.5,0.2-1.9,0.6c-0.4,0.5-0.6,1.2-0.6,2.1V17
			h-1.1c-0.9,0-1.4-0.4-1.4-1.3V9.3c0-1.6,0.4-2.8,1.3-3.8c0.9-1,2.1-1.4,3.7-1.4c1.3,0,2.4,0.4,3.3,1.2c0.1,0.1,0.3,0.2,0.5,0.5
			c0.2-0.2,0.3-0.3,0.5-0.5c0.9-0.8,2-1.2,3.3-1.2c1.6,0,2.8,0.5,3.7,1.4c0.9,0.9,1.3,2.2,1.3,3.8V17h-1.1c-0.9,0-1.4-0.4-1.4-1.3
			V9.3C158.4,8.4,158.2,7.7,157.8,7.2z"/>
		<path class="st0" d="M173.5,5.5c1.2,1,1.8,2.3,1.8,3.7V17h-0.7c-0.6,0-1.1-0.3-1.4-1c-1,1-2.4,1.4-3.8,1.4c-1.6,0-3-0.5-4.1-1.5
			c-1.2-1-1.8-2.2-1.8-3.7V9.3c0-1.5,0.6-2.7,1.8-3.7c1.2-1,2.5-1.5,4.1-1.5C170.9,4.1,172.3,4.6,173.5,5.5z M169.3,6.6
			c-1,0-1.8,0.3-2.6,0.9c-0.6,0.5-0.9,1.1-0.9,1.8v2.9c0,0.7,0.3,1.3,0.9,1.8c0.7,0.6,1.6,0.9,2.6,0.9c1,0,1.8-0.3,2.6-0.9
			c0.6-0.5,0.9-1.1,0.9-1.8V9.3c0-0.7-0.3-1.3-0.9-1.8C171.2,6.9,170.3,6.6,169.3,6.6z"/>
		<path class="st0" d="M178.1,8.9c0-1.5,0.5-2.6,1.4-3.4c0.8-0.7,1.7-1,2.8-1h1.6v1.1c0,0.9-0.4,1.4-1.3,1.4h-0.3
			c-0.4,0-0.8,0.1-1.2,0.4c-0.4,0.3-0.6,0.8-0.6,1.5V17h-1.1c-0.9,0-1.4-0.4-1.4-1.3V8.9z"/>
		<path class="st0" d="M186,1.3c0-0.9,0.5-1.3,1.4-1.3h1.1v9.7h0.9c0.5,0,1,0,1.3-0.5l2.3-3.8c0.4-0.6,0.9-0.9,1.5-0.9h1.9l-3,4.9
			c-0.2,0.3-0.3,0.5-0.5,0.7c0.8,0.4,1.5,1.1,1.9,2.1L197,17h-1.6c-0.7,0-1.2-0.3-1.5-0.8l-1.4-3.1c-0.3-0.6-0.7-0.9-1.4-0.9h-2.7
			V17h-1.1c-0.9,0-1.4-0.4-1.4-1.3L186,1.3L186,1.3z"/>
		<path class="st0" d="M207.2,4.7c0.6,0.3,1.1,0.8,1.6,1.3c0.5,0.7,0.7,1.4,0.7,2.2c0,0.7-0.1,1.3-0.4,1.8c-0.3,0.5-0.6,0.9-1.1,1.2
			c-0.4,0.3-0.9,0.6-1.5,0.7c-0.5,0.1-1,0.2-1.6,0.2h-3c-0.2,0-0.4,0-0.5,0c-0.2,0-0.3-0.1-0.4-0.2v1c0,0.6,0.3,1.1,0.9,1.4
			c0.5,0.3,1.1,0.5,1.7,0.5c0.6,0.1,1.2,0,1.8-0.1c0.4-0.1,0.8-0.3,1.2-0.5c0.1-0.1,0.2-0.2,0.3-0.3c0.4-0.4,0.9-0.5,1.5-0.2
			l1.2,0.6c-0.2,0.5-0.5,1-0.9,1.4c-0.6,0.6-1.3,1-2.1,1.3c-0.7,0.3-1.6,0.4-2.4,0.4c-0.7,0-1.4-0.1-1.9-0.2
			c-0.7-0.2-1.3-0.4-1.8-0.8c-0.6-0.4-1.1-1-1.4-1.7c-0.3-0.6-0.4-1.4-0.4-2.1V8.6c0-0.6,0.1-1.2,0.4-1.8c0.4-0.9,1.1-1.6,2.1-2
			c0.9-0.4,1.8-0.6,2.9-0.6C205,4.1,206.2,4.2,207.2,4.7z M206.3,9.4c0.4-0.2,0.6-0.6,0.7-1c0-0.5-0.1-0.9-0.5-1.2
			c-0.5-0.4-1.2-0.5-1.8-0.6c-0.7,0-1.4,0-1.9,0.1c-0.5,0.1-0.9,0.3-1.3,0.6C201.2,7.6,201,8,201,8.5v1.2h4.1
			C205.6,9.7,206,9.6,206.3,9.4z"/>
		<path class="st0" d="M217.3,4.5v1.1c0,0.9-0.4,1.4-1.3,1.4h-1.6v6c0,0.6,0.2,1.1,0.6,1.5c0.3,0.3,0.7,0.4,1.2,0.4V16
			c0,0.6-0.2,0.9-0.7,1c-0.4,0.1-0.8,0.1-1.3-0.1c-0.7-0.3-1.2-0.8-1.6-1.4c-0.4-0.7-0.6-1.5-0.6-2.5V1.3c0-0.9,0.4-1.3,1.4-1.3h1.1
			v4.5H217.3z"/>
		<path class="st0" d="M220.8,0h1.1v1.2c0,0.9-0.5,1.3-1.4,1.3h-1.1V1.3C219.4,0.4,219.9,0,220.8,0z M219.4,5.8
			c0-0.9,0.5-1.3,1.4-1.3h1.1V17h-1.1c-0.9,0-1.4-0.4-1.4-1.3V5.8z"/>
		<path class="st0" d="M226.7,5.5c1.1-0.9,2.4-1.4,3.9-1.4c1.5,0,2.9,0.5,4,1.4c1.2,1,1.8,2.2,1.8,3.6V17h-1.1
			c-0.9,0-1.4-0.4-1.4-1.3V9.1c0-0.6-0.3-1.2-0.9-1.7c-0.6-0.5-1.4-0.8-2.4-0.8c-0.9,0-1.7,0.3-2.4,0.8c-0.6,0.5-0.9,1-0.9,1.7V17
			h-1.1c-0.9,0-1.4-0.4-1.4-1.3V9.1C224.9,7.7,225.5,6.5,226.7,5.5z"/>
		<path class="st0" d="M248.9,5.5c1.2,1,1.8,2.3,1.8,3.7v7.6c0,0.8-0.1,1.5-0.5,2.1c-0.6,1.3-1.8,2-3.1,2.4
			c-0.7,0.2-1.4,0.3-2.2,0.3c-0.7,0-1.3-0.1-1.9-0.2c-0.6-0.1-1-0.3-1.2-0.6c-0.1-0.2-0.2-0.6,0-1l0.2-1c0.6,0.2,1.3,0.4,2.2,0.4
			c0.8,0,1.6-0.1,2.2-0.2c1.2-0.3,1.8-1,1.8-2.1v-0.5c-1,0.7-2.2,1-3.5,1c-1.6,0-3-0.5-4.1-1.5c-1.2-1-1.8-2.2-1.8-3.7V9.3
			c0-1.5,0.6-2.7,1.8-3.7c1.2-1,2.5-1.5,4.1-1.5C246.4,4.1,247.8,4.6,248.9,5.5z M244.8,6.6c-1,0-1.8,0.3-2.6,0.9
			c-0.6,0.5-0.9,1.1-0.9,1.8v2.9c0,0.7,0.3,1.3,0.9,1.8c0.7,0.6,1.6,0.9,2.6,0.9c1,0,1.8-0.3,2.6-0.9c0.6-0.5,0.9-1.1,0.9-1.8V9.3
			c0-0.7-0.3-1.3-0.9-1.8C246.7,6.9,245.8,6.6,244.8,6.6z"/>
		<path class="st0" d="M255.2,14.2h1.1v1.5c0,0.9-0.5,1.3-1.4,1.3h-1.1v-1.5C253.8,14.6,254.3,14.2,255.2,14.2z"/>
		<path class="st0" d="M259,9.1c0-1.4,0.6-2.6,1.8-3.6c1.1-0.9,2.4-1.4,3.9-1.4s2.9,0.5,4,1.4c0.7,0.6,1.2,1.2,1.5,2L269,8
			c-0.6,0.3-1.2,0.2-1.6-0.3c-0.1-0.2-0.2-0.3-0.3-0.3c-0.7-0.5-1.5-0.8-2.4-0.8c-0.9,0-1.7,0.3-2.4,0.8c-0.6,0.5-0.9,1.1-0.9,1.7
			v3.4c0,0.6,0.3,1.2,0.9,1.7c0.6,0.5,1.4,0.8,2.4,0.8c0.9,0,1.7-0.3,2.4-0.8c0.1-0.1,0.2-0.2,0.3-0.3c0.4-0.5,1-0.6,1.6-0.3
			l1.1,0.6c-0.3,0.8-0.8,1.4-1.5,2c-1.1,0.9-2.4,1.4-4,1.4c-1.6,0-2.9-0.5-3.9-1.4c-1.2-1-1.8-2.2-1.8-3.6V9.1z"/>
		<path class="st0" d="M282.1,5.5c1.2,1,1.8,2.3,1.8,3.7v2.9c0,1.5-0.6,2.7-1.8,3.7c-1.2,1-2.5,1.5-4.1,1.5c-1.6,0-3-0.5-4.1-1.5
			c-1.2-1-1.8-2.2-1.8-3.7V9.3c0-1.5,0.6-2.7,1.8-3.7c1.2-1,2.5-1.5,4.1-1.5C279.6,4.1,280.9,4.6,282.1,5.5z M278,6.6
			c-1,0-1.8,0.3-2.6,0.9c-0.6,0.5-0.9,1.1-0.9,1.8v2.9c0,0.7,0.3,1.3,0.9,1.8c0.7,0.6,1.6,0.9,2.6,0.9c1,0,1.8-0.3,2.6-0.9
			c0.6-0.5,0.9-1.1,0.9-1.8V9.3c0-0.7-0.3-1.3-0.9-1.8C279.8,6.9,279,6.6,278,6.6z"/>
		<path class="st0" d="M300.9,7.2c-0.4-0.4-1-0.6-1.9-0.6c-0.8,0-1.4,0.2-1.8,0.7c-0.5,0.5-0.7,1.2-0.7,2V17h-1.1
			c-0.9,0-1.4-0.4-1.4-1.3V9.3c0-0.8-0.2-1.5-0.7-2c-0.4-0.5-1.1-0.7-1.8-0.7c-0.9,0-1.5,0.2-1.9,0.6c-0.4,0.5-0.6,1.2-0.6,2.1V17
			h-1.1c-0.9,0-1.4-0.4-1.4-1.3V9.3c0-1.6,0.4-2.8,1.3-3.8c0.9-1,2.1-1.4,3.7-1.4c1.3,0,2.4,0.4,3.3,1.2c0.1,0.1,0.3,0.2,0.5,0.5
			c0.2-0.2,0.3-0.3,0.5-0.5c0.9-0.8,2-1.2,3.3-1.2c1.6,0,2.8,0.5,3.7,1.4c0.9,0.9,1.3,2.2,1.3,3.8V17h-1.1c-0.9,0-1.4-0.4-1.4-1.3
			V9.3C301.5,8.4,301.3,7.7,300.9,7.2z"/>
	</g>
	<g>
		<path class="st0" d="M4.9,9.2c0-1.1-0.1-2.1-1.3-2.1c-0.8,0-1.2,0.3-1.2,1.1c0,0.9,0.6,1.3,1.3,1.7c0.7,0.5,2.1,1.4,2.7,2
			c0.8,0.8,1,1.5,1,2.5c0,2.3-1.5,3.5-3.7,3.5C1,17.9,0,16.3,0,14.2v-0.9h2.2V14c0,1.2,0.3,2,1.4,2c0.9,0,1.4-0.5,1.4-1.4
			c0-0.7-0.3-1.2-0.9-1.6c-1.2-0.9-2.6-1.6-3.5-2.8C0.2,9.7,0,9.1,0,8.4c0-2.1,1.2-3.2,3.5-3.2C7.1,5.3,7,8,7.1,9.2H4.9z"/>
		<path class="st0" d="M9.9,17.6v-12h2.2v12H9.9z"/>
		<path class="st0" d="M14.1,5.5h7.5v1.8H19v10.3h-2.2V7.3h-2.6L14.1,5.5L14.1,5.5z"/>
		<path class="st0" d="M23.5,17.6v-12h6.3v1.8h-4.1v3h3.8v1.8h-3.8v3.7h4.1v1.8H23.5z"/>
		<path class="st0" d="M36.9,17.6v-12h3.6c1,0,1.9,0.1,2.5,0.9c0.5,0.7,0.6,1.3,0.6,2.2c0,1-0.2,2.1-1.4,2.5v0
			c1.3,0.2,1.7,1.2,1.7,2.8c0,0.5,0,1-0.2,1.5c-0.5,1.5-1.3,2.2-2.9,2.2L36.9,17.6L36.9,17.6z M39.5,10.4c0.5,0,1.3,0,1.6-0.4
			c0.2-0.3,0.2-0.7,0.2-1.3c0-0.9-0.2-1.3-1.2-1.4h-1v3.1H39.5z M39.6,15.8c0.5,0,0.9,0,1.3-0.1c0.6-0.3,0.7-1.1,0.7-1.7
			c0-1.3-0.3-1.8-1.7-1.8h-0.9v3.6L39.6,15.8L39.6,15.8z"/>
		<path class="st0" d="M49.3,8.7c0.2,0.6,0.4,1.2,0.5,1.8h0c0.2-0.9,0.5-1.6,0.7-2.3l1.1-2.7h2.5l-3.2,6.9v5.1h-2.2v-5.1l-3.1-6.9
			H48L49.3,8.7z"/>
	</g>
</g>
</svg>
