<?xml version="1.0" encoding="utf-8"?>
<!-- Generator: Adobe Illustrator 23.0.1, SVG Export Plug-In . SVG Version: 6.00 Build 0)  -->
<svg version="1.1" id="Layer_1" xmlns="http://www.w3.org/2000/svg" xmlns:xlink="http://www.w3.org/1999/xlink" x="0px" y="0px"
	 width="70.4px" height="67.4px" viewBox="0 0 70.4 67.4" style="enable-background:new 0 0 70.4 67.4;" xml:space="preserve">
<style type="text/css">
	.st0{fill:#19204B;}
	.st1{fill:#FFFFFF;}
	.st2{fill:#6190CB;}
</style>
<g>
	<path class="st1" d="M69.9,24.1c-0.1-0.3-0.3-0.5-0.4-0.8c-0.5-1-1-2-1.2-3c-0.5-2.2-1.7-3.6-3.8-4.5c-2.1-0.9-4.3-1.9-6.4-2.8
		l-0.4-0.2c-2.4-1.1-4.7-0.9-7,0.3c-0.3,0.2-0.7,0.4-1,0.6L49.4,14c0,0,0-0.1,0-0.1c-0.1-0.2-0.1-0.4-0.2-0.6
		c-1.5-3.9-4.1-6.4-7.6-7.3c-2.4-0.6-3.9-1.5-4.4-4C37,1.2,36.6,0.6,36,0.3c-0.7-0.4-1.6-0.3-2.6,0.1c-0.2,0.1-0.4,0.2-0.6,0.3
		c-0.1,0.1-0.2,0.1-0.4,0.2c-0.6,0.3-1.1,0.5-1.7,0.8c-1.4,0.7-2.9,1.4-4.3,2c-1.5,0.6-2.4,1.5-2.9,2.8c-0.4,1-0.8,1.9-1.3,2.6
		c-1.5,2.4-2.7,5.1-2,8.5c-0.4,0.1-0.7,0.2-1.1,0.4c-0.9,0.3-1.7,0.6-2.5,0.7c-0.7,0-1.5,0.1-2.2,0.1c-2.1,0.1-4.2,0.2-6.4-0.2
		c-3.3-0.6-5.5,0.6-6.4,3.6c-0.3,1.1-0.4,2.2-0.5,3.3c0,0.5-0.1,1-0.2,1.6c0,0.2-0.1,0.4-0.1,0.6c0,0.1,0,0.2-0.1,0.3
		c-0.1,0.2-0.1,0.5-0.2,0.7c-0.1,0.6-0.3,1.2-0.4,1.8c0,0.1,0,0.3,0,0.5c0,0.1,0,0.3,0,0.4c-1.1,1.3,0,2.2,0.6,2.7
		c1,0.8,2,1.8,2.3,3.1c0.8,3.4,3.1,5.6,7.3,6.8c0.1,0,0.2,0.1,0.3,0.1c-0.2,0.5-0.3,0.9-0.5,1.4c-0.4,1.2-0.8,2.3-1.1,3.5
		C9,50,8.7,51.2,7.6,52.2c-0.8,0.8-1,1.8-0.5,3.1c0.5,1.4,1,2.8,1.5,4.3c0.5,1.4,1.4,2.2,2.8,2.5c0.2,0,0.3,0.1,0.5,0.1
		c1.8,0.3,3.7,0.7,5.1,2c0.3,0.2,0.7,0.3,1,0.4l0.1,0c2.9,0.7,5.4,0.4,7.4-0.9c3.1-2,6.4-4.7,8.2-8.8c0-0.1,0.1-0.2,0.2-0.4
		c0,0,0,0,0-0.1c0.1,0.3,0.2,0.5,0.3,0.7c0.3,0.7,0.5,1.4,0.6,2c0.3,2.4,1.6,3.9,3.9,4.8c0.6,0.2,1.7,0.7,2.4,1.6
		c1.1,1.3,2.4,2.2,3.9,2.7c1.9,0.7,3.9,1,6,1c1.4,0,2.8-0.2,4.3-0.5c2.3-0.5,3.9-2.3,4.2-4.8c0.1-0.5,0.3-1.1,0.7-1.7
		c0.3-0.5,0.7-0.9,1.1-1.3c0.2-0.2,0.4-0.4,0.6-0.7c1-1.2,1.4-2.6,1.1-4.3c-0.3-1.8-1-3.2-2.2-4.3c-0.7-0.6-1.3-1.2-1.9-1.8
		c-1.9-1.8-3.8-3.8-6.4-4.8c0.5-0.4,1-0.7,1.5-1.1c1.3-1,2.6-1.9,3.9-2.6c2.9-1.6,4.8-3.9,5.8-6.6c1-2.8,2.4-4.3,4.8-5
		c1-0.3,1.5-0.7,1.8-1.3C70.6,26,70.4,25.3,69.9,24.1z M57,33.1c0,0-0.1,0.1-0.1,0.1c-0.2,0.2-0.5,0.5-0.5,0.9
		c0,0.2,0.1,0.4,0.3,0.6c0.3,0.3,1.2-0.2,1.4-0.5c1.4-1.5,3-2.7,5-3.8c-0.4,1.5-1,3.1-2.1,4.4c-1.1,1.3-2.2,2.6-4,3.5
		c-1.3,0.7-2.5,1.6-3.6,2.4c-0.4,0.3-0.9,0.6-1.3,0.9c-1,0.7-1.9,0.8-2.9,0.1c-1.4-0.9-2.9-1.7-4.4-2.4l-0.2-0.1
		c-0.2-0.1-0.5-0.1-0.8-0.1c-0.1,0-0.2,0-0.3,0l-0.3,0l0.1,0.3c0,0.1,0.1,0.2,0.1,0.3c0.1,0.3,0.2,0.6,0.4,0.8
		c2.3,1.2,4.7,2.4,6.9,3.5l1.5,0.8c0.2,0.1,0.4,0.2,0.6,0.2c0.4,0.1,0.7,0.3,1,0.5c0.5,0.4,1,0.9,1.5,1.3c1.8,1.5,3.6,3.1,5.2,4.9
		c1.6,1.8,1.6,4.2-0.1,6.3c-0.5,0.6-1,1.2-1.5,1.9c-0.2,0.3-0.4,0.6-0.7,0.9l-1.3-1.1c-1.4-1.2-2.8-2.4-4.2-3.6
		c-0.1-0.1-0.2-0.2-0.3-0.3c-0.2-0.3-0.5-0.6-0.8-0.6c-0.2,0-0.4,0.1-0.6,0.3c-0.2,0.2-0.3,0.4-0.3,0.7c0,0.4,0.4,0.7,0.7,0.9
		c0.1,0.1,0.2,0.1,0.2,0.2c2.2,1.9,4.1,3.4,5.8,4.8c0.5,0.4,0.6,0.7,0.4,1.2c-0.5,1.2-1.5,1.9-2.9,2.2c-3.6,0.7-6.7,0.5-9.4-0.6
		c-0.7-0.3-1.3-0.8-1.9-1.3c-0.3-0.3-0.6-0.5-1-0.8c-0.3-0.2-0.5-0.4-0.8-0.6c-0.7-0.5-1.4-1.1-2.2-1.4c-2-0.8-2.9-1.9-3-3.7
		c-0.1-0.6-0.3-1.2-0.5-1.9c-0.1-0.2-0.1-0.4-0.2-0.6c2,0.7,3.9,1.5,5.6,2.8c0.2,0.2,0.6,0.2,0.9,0.3c0.1,0,0.2,0,0.4,0.1l0.4,0.1
		l-0.1-0.4c0-0.1-0.1-0.2-0.1-0.4c-0.1-0.3-0.2-0.7-0.4-0.8c-2-1.1-4.1-2.1-6.1-3.1L35.9,53c-0.3-0.1-0.5-0.2-0.8-0.3
		c-0.1,0-0.2-0.1-0.3-0.1c0.1-0.6,0.2-1.3,0.3-1.9c0.3-1.7,0.6-3.4,0.9-5.1c0.1-0.5,0.2-0.9,0.4-1.4c0.1-0.4,0.3-0.9,0.4-1.4
		c0.1-0.3,0-0.6-0.1-0.9c0-0.1-0.1-0.2-0.1-0.3l-0.1-0.4l-0.3,0.3c-0.1,0.1-0.2,0.2-0.3,0.2c-0.3,0.2-0.5,0.4-0.6,0.7L35,43
		c-0.5,2.3-1.1,4.6-1.5,7c-0.6,3.7-1.9,6.4-3.9,8.5c-1.4,1.4-2.8,2.6-4.1,3.6c-1.9,1.4-4.1,1.9-6.7,1.3c-0.3-0.1-0.7-0.2-0.9-0.3
		c-1.4-1.4-3.3-1.8-4.9-2.1c0.4-0.4,0.7-0.7,1.1-1.1c1-1,2-2,2.9-3.1c0.8-1,1.5-2.1,2.1-3.1c0.1-0.2,0.1-0.6,0.1-0.9
		c0-0.1,0-0.2,0-0.3l0-0.3l-0.3,0.2c-0.1,0-0.2,0.1-0.3,0.1c-0.3,0.1-0.6,0.2-0.7,0.5c-1.6,2.7-3.6,5-6,6.9
		c-0.2,0.1-0.4,0.3-0.6,0.4c-0.1,0-0.2,0.1-0.2,0.2c-0.1-0.1-0.1-0.2-0.2-0.3c-0.2-0.3-0.3-0.6-0.5-0.9c-0.2-0.6-0.5-1.2-0.7-1.8
		c-0.3-0.7-0.6-1.5-0.9-2.3c-0.2-0.5-0.3-0.8-0.2-1c0.1-0.2,0.4-0.3,0.9-0.6c1.6-0.6,3.1-1.4,4.6-2.2l0.6-0.3
		c0.2-0.1,0.3-0.4,0.4-0.7c0-0.1,0-0.2,0.1-0.3l0.1-0.3l-0.3,0c-0.1,0-0.2,0-0.3,0c-0.3,0-0.6-0.1-0.8,0c-1,0.5-1.9,1.1-2.9,1.7
		c-0.3,0.2-0.6,0.3-0.9,0.5l0,0c0.2-0.6,0.4-1.3,0.6-1.9c0.5-1.5,1-3.1,1.7-4.6c1-2,3-2.8,5.7-2.3c0.3,0.1,0.6,0,0.9-0.1
		c0.1,0,0.2-0.1,0.4-0.1l0.4-0.1l-0.3-0.3c-0.1-0.1-0.2-0.2-0.3-0.3c-0.2-0.3-0.4-0.5-0.8-0.6c-1.8-0.5-3.6-0.3-5.2,0.7
		c-0.3,0.2-0.8,0.3-1.2,0.2c-1.9-0.2-3.4-0.9-4.6-1.9c-0.7-0.6-1.6-1.5-1.9-2.4c-0.7-2.1-1.6-4.3-3.4-5.5c0-0.3,0-0.6,0-0.9
		c0-0.7,0-1.2,0-1.8c0.1-0.5,0.3-1,0.6-1.4c0.1,0,0.6,0.1,0.9,0.2c1,0.5,2,1.1,3,1.6c0.9,0.5,1.9,1,2.8,1.5c0.2,0.1,0.5,0.1,0.7,0.1
		c0.1,0,0.2,0,0.3,0l0.2,0l0-0.2c0-0.1,0-0.2,0-0.3c0-0.3,0-0.6-0.2-0.7c-1-0.7-2.1-1.4-3.3-2c-1-0.5-2-0.9-3.1-1.4
		c-0.4-0.2-0.8-0.4-1.2-0.5c0.1-0.4,0.1-0.8,0.2-1.2c0.2-1,0.3-2,0.6-2.9c0.4-1.6,1.4-2.4,3.1-2.4l0.1,0c0.3,0,0.5,0,0.7,0
		c2.3,0.5,4.6,0.4,6.9,0.3c0.8,0,1.7-0.1,2.5-0.1c0.5,0,0.6,0.1,0.8,0.5c0.5,0.9,1.1,1.7,1.7,2.5c0.2,0.2,0.5,0.3,0.9,0.3
		c0.1,0,0.3,0,0.4,0l0.3,0.1l-0.1-0.3c0-0.1-0.1-0.2-0.1-0.3c-0.1-0.3-0.1-0.5-0.3-0.8c-0.4-0.6-0.8-1.1-1.3-1.8
		c-0.1-0.2-0.3-0.4-0.5-0.6c0.3-0.1,0.6-0.2,0.9-0.3c0.9-0.3,1.6-0.6,2.4-0.8c0.3-0.1,1,0.4,1.2,0.8c0.3,0.5,0.5,1.1,0.7,1.7
		c0.1,0.4,0.3,0.8,0.4,1.2c0.7,1.7,1.6,3.4,2.3,5c0.2,0.3,0.4,0.7,0.7,0.9c0.2,0.2,0.6,0.2,0.8,0.2c0.1,0,0.2-0.1,0.2-0.1
		c0.2-0.2,0.4-0.8,0.2-1c-1.3-1.7-2-3.7-2.7-5.6c-0.2-0.7-0.5-1.4-0.8-2.1c-0.5-1.2-1.1-2.5-2.8-2.6c-0.1,0-0.4-0.4-0.4-0.7
		c-0.2-1.6,0.1-3.2,1.1-5c0.3-0.6,0.6-1.1,0.8-1.7c0.5-0.9,1-1.9,1.5-2.8c0.4-0.6,1-1.2,1.7-1.6c1.6-0.8,3.3-1.6,4.9-2.4
		c0.6-0.3,1.1-0.5,1.7-0.8c0.1,0,0.2-0.1,0.2-0.1c0.3-0.1,0.6-0.3,0.9-0.3c0.2,0,0.5,0.1,0.7,0.3c0,0.1,0,0.4-0.2,0.6
		c-2,3.1-3.2,6.5-3.6,9.9c0,0.1,0,0.1,0,0.2c0,0.2-0.1,0.5,0,0.7c0.1,0.2,0.2,0.4,0.4,0.6c0.1,0.1,0.1,0.1,0.2,0.2l0.2,0.2l0.2-0.2
		c0.1-0.1,0.1-0.1,0.2-0.2c0.2-0.2,0.4-0.3,0.4-0.6c0.1-0.5,0.2-1,0.2-1.5c0.1-0.5,0.1-1.1,0.3-1.6C34,8,34.8,6,36.1,3.9
		c0.8,2.4,2.8,3,4.7,3.5c3.5,1,5.9,3.3,7,7c0.1,0.5,0.1,0.7-0.4,1.1c-1.6,1.4-3.2,2.9-4.8,4.5c-1,1-1.5,2.2-1.4,3.5
		c0,0.4-0.1,0.7-0.2,1.1c-0.1,0.3-0.2,0.6-0.2,0.9c0,0.3,0.1,0.5,0.2,0.7c0,0.1,0.1,0.2,0.1,0.3l0.1,0.3l0.2-0.2
		c0.1,0,0.2-0.1,0.3-0.1c0.2-0.1,0.5-0.3,0.6-0.5c0.1-0.5,0.2-1,0.3-1.5c0.1-0.4,0.2-0.8,0.3-1.2c0-0.2,0.1-0.3,0.1-0.5
		c0.1-0.6,0.3-1.1,0.6-1.5c2.4-2.3,4.8-4.5,7.3-6.5c1.8-1.4,4-1.6,6.3-0.5c0.5,0.3,1.1,0.5,1.6,0.8c0.9,0.4,1.8,0.8,2.7,1.3
		c0.1,0.1,0.3,0.5,0.3,0.7c-0.4,1.9-1.3,3.7-2.8,5.4c-0.6,0.7-1.3,1.4-2,2c-0.5,0.5-1.1,1-1.6,1.6c-0.2,0.2-0.3,0.5-0.4,0.8
		c0,0.1-0.1,0.2-0.1,0.3l-0.1,0.3l0.4-0.1c0.1,0,0.2,0,0.4,0c0.3,0,0.6,0,0.9-0.2c2.9-2.5,6-5.5,7-10c1.7,0.7,2.6,1.6,3,3.1
		c0.3,1.3,0.9,2.5,1.5,3.6c0.2,0.3,0.3,0.7,0.5,1c0.2,0.5,0.4,0.9,0.3,1.1c-0.1,0.2-0.3,0.3-0.9,0.6c-0.6,0.2-1.2,0.5-1.7,0.7
		c-0.8,0.3-1.6,0.6-2.3,0.9C61.1,29.4,58.8,31.1,57,33.1z"/>
	<path class="st1" d="M35.5,34.3c-0.5-0.6-1-1.2-1.4-1.9c-0.3-0.5-0.5-1-0.9-1.4c-0.2-0.3-0.6-0.3-1-0.5c0,0.3-0.1,0.7,0,1
		c0.1,0.4,0.4,0.8,0.7,1.3c-2.1-0.5-2.2-0.6-2.8-2.3c-0.1-0.3-0.4-0.4-0.7-0.6c-0.2,0.2-0.3,0.5-0.4,0.7c-0.1,0.1,0,0.3,0,0.5
		c-1.2-0.6-2.5-0.9-3-2.3c-0.1-0.3-0.6-0.6-0.9-0.9c-0.2,0.3-0.4,0.7-0.6,1.1c-0.4-0.2-0.8-0.4-1.3-0.5c-0.3-0.1-0.7,0.1-1,0.2
		c0.2,0.3,0.3,0.7,0.5,0.8c0.6,0.4,1.3,0.6,2.1,1c-0.6,0.4-1.1,0.6-1.5,1c-0.2,0.2-0.2,0.5-0.3,0.8c0.3,0.1,0.7,0.3,0.9,0.2
		c0.6-0.2,1.1-0.7,1.6-0.9c0.3-0.1,0.6-0.3,0.8-0.2c0.7,0.2,1.3,0.6,2.1,1c-0.5,0.3-0.9,0.4-1.1,0.7c-0.3,0.3-0.4,0.7-0.6,1
		c0.4,0,0.9,0.1,1.2-0.1c1.5-1,2.9-1,4.5,0.3c-0.8,0.2-1.5,0.4-2.1,0.7c-0.2,0.1-0.4,0.4-0.6,0.6c0.3,0.2,0.6,0.5,0.8,0.5
		c0.8-0.2,1.7-0.4,2.4-0.8c0.9-0.6,1.6-0.7,2.2,0.4c0.1,0.1,0.5,0.3,0.6,0.2c0.2-0.1,0.4-0.4,0.4-0.6C35.9,34.9,35.7,34.6,35.5,34.3
		z"/>
	<path class="st1" d="M48,34.4c-0.1-0.2-0.6-0.3-0.9-0.3c-1,0.1-2.1,0.2-2.9,0.3c-0.2-0.4-0.4-0.7-0.6-1c-0.3,0.2-0.6,0.3-0.9,0.5
		c-0.1,0.1-0.2,0.3-0.3,0.4c-1.3,1.2-2.7,2.1-4.5,2.1c-1.1,0-1.3,0.3-1,1.3c0.5,1.7,1.4,3.3,2.8,4.5c0.2,0.2,0.7,0.2,1.1,0.3
		c-0.1-0.4-0.1-0.9-0.3-1.1c-1-1.1-1.9-2.2-2.3-4c1.2,0.1,2.2,0.1,3.2,0.2c0.5,0,0.9,0.2,1.3,0.2c0.2,0,0.5-0.3,0.7-0.5
		c-0.2-0.2-0.3-0.5-0.5-0.6c-0.2-0.1-0.6-0.1-1.2-0.3c2-0.8,3.7-1.3,5.3,0.1c0.2,0.2,0.7,0,1.1,0c-0.1-0.4-0.2-0.7-0.3-1.2
		C47.9,35.1,48.1,34.7,48,34.4z"/>
	<path class="st1" d="M37.5,35.2c0.1-0.1,0.1-0.3,0.2-0.5c0.6-1.5,1.3-3,3.3-3.1c0.3,0,0.5-0.3,0.8-0.5c-0.2-0.3-0.4-0.5-0.7-0.9
		c0.9-0.7,1.7-1.5,3.1-1.4c0.5,0.1,1.1-0.1,0.8-0.7c-0.3-0.6,0.2-0.8,0.5-1.1c0.9-0.9,1.8-1.9,2.6-2.8c0.1-0.2-0.1-0.6-0.1-1
		c-0.3,0.1-0.6,0.2-0.8,0.4c-0.5,0.5-0.8,1.1-1.1,1.4c-0.4-0.4-0.7-0.6-1-0.9c-0.2,0.4-0.5,0.8-0.4,1.2c0.1,0.7-0.1,1.1-0.7,1.5
		c-0.6,0.4-1.1,0.8-1.6,1.1c-0.4-0.2-0.7-0.4-1.1-0.6c-0.2,0.3-0.3,0.7-0.5,1c-0.2,0.4-0.4,0.9-0.6,1.2c-0.9,1.1-1.9,2.1-2.7,3.3
		c-0.4,0.6-0.6,1.3-0.8,2c-0.1,0.2,0.2,0.5,0.4,0.8C37.1,35.5,37.3,35.4,37.5,35.2z"/>
	<path class="st1" d="M35.4,36.5c-0.7-0.1-1.5-0.2-2,0.1c-1,0.6-1.9,1.4-3.2,1.1c-0.1,0-0.4,0.4-0.6,0.6c0.2,0.2,0.4,0.4,0.6,0.5
		c0.3,0.1,0.7,0.1,1.1,0.1c0,0.1,0.1,0.2,0.1,0.4c-0.3,0.2-0.7,0.4-1,0.5c-0.7,0.1-1.5,0.1-2.2,0.3c-0.3,0.1-0.5,0.4-0.8,0.6
		c0.3,0.2,0.6,0.5,0.9,0.5c0.7,0,1.3-0.1,2-0.1c0,0.8-1.5,0.9-0.7,1.7c0.2,0.2,1.1-0.2,1.7-0.4c0.2,0.7-0.2,1.4-0.7,2.1
		c-0.2,0.3-0.2,0.8-0.3,1.1c0.4-0.2,0.9-0.2,1.2-0.5c1-1.1,1.1-2.5,0.8-3.9c-0.1-0.7,0-1.4,0-2.1c0.1,0,0.3,0,0.4,0
		c0.2,0.3,0.3,0.6,0.6,0.8c0.2,0.2,0.6,0.3,0.9,0.5c0-0.4,0.2-0.8,0.1-1.1c-0.2-0.5-0.6-0.9-0.8-1.4c0-0.1,0.1-0.2,0.1-0.3
		c0.5,0,0.9,0,1.4,0c0.3,0,0.5-0.2,0.8-0.2C35.6,37,35.6,36.5,35.4,36.5z"/>
	<path class="st1" d="M35.7,28.8c0.1-0.3,0.3-0.7,0.2-0.9c-1-2.1-1.5-4.3-1.6-6.5c0-0.2-0.3-0.5-0.5-1c-0.3,0.5-0.6,0.8-0.6,1
		c0,2.4,0.5,4.8,1.6,6.9C35,28.6,35.4,28.7,35.7,28.8z"/>
	<path class="st1" d="M25.2,11.2c-0.2,0.7-0.3,1.5-0.4,2.1c0,0.3,0,0.5,0,0.7c0.2,0.3,0.5,0.6,0.7,0.8c0.1-0.3,0.3-0.6,0.4-0.9
		c0.2-0.8,0.3-1.6,0.4-2.3c0-0.3-0.2-0.6-0.3-0.8C25.7,10.8,25.3,10.9,25.2,11.2z"/>
	<path class="st1" d="M40.9,43.9c0.3,0.5,0.7,0.9,1.1,1.3c0,0,0.6-0.4,0.6-0.5c-0.3-0.5-0.6-1-1.1-1.7
		C41.2,43.4,40.8,43.8,40.9,43.9z"/>
	<path class="st1" d="M27.9,43c-0.5,0.2-0.9,0.5-1.3,0.8c0.2,0.2,0.4,0.4,0.8,0.8c0.5-0.4,0.8-0.7,1.2-1.1
		C28.4,43.4,28.1,43,27.9,43z"/>
	<path class="st1" d="M37.8,43.7c-0.1,0.2,0.3,0.5,0.5,0.7c0.3-0.3,0.6-0.7,1-1.1c-0.4-0.4-0.6-0.6-0.8-0.8
		C38.3,42.9,38,43.2,37.8,43.7z"/>
	<path class="st1" d="M29.5,46c-0.4,0.3-0.7,0.7-1,1c0.2,0.2,0.5,0.5,0.6,0.5c0.4-0.2,0.8-0.6,1.3-1.1C29.9,46.3,29.6,46,29.5,46z"
		/>
	<path class="st1" d="M47.5,27.7c-0.2-0.2-0.5-0.6-0.6-0.5c-0.4,0.2-0.8,0.5-1.2,0.7c0.2,0.2,0.3,0.5,0.6,0.9
		C46.8,28.4,47.2,28.1,47.5,27.7z"/>
	<path class="st1" d="M24.3,41.2c0.2,0.2,0.5,0.6,0.6,0.5c0.4-0.2,0.8-0.5,1.2-0.8c-0.2-0.2-0.3-0.4-0.6-0.8
		C25,40.6,24.6,40.9,24.3,41.2z"/>
	<path class="st1" d="M42.3,40.4c-0.7-0.4-1.1-0.6-1.6-0.8c-0.1,0-0.3,0.4-0.5,0.6c0.4,0.3,0.7,0.6,1.1,0.7
		C41.5,41,41.8,40.7,42.3,40.4z"/>
	<path class="st1" d="M43.8,37.4c0.2,0.3,0.5,0.5,0.9,1c0.4-0.4,0.6-0.7,0.8-0.9c-0.3-0.2-0.5-0.5-0.8-0.6
		C44.4,36.9,44.1,37.2,43.8,37.4z"/>
	<path class="st1" d="M28.5,37.7c-0.3-0.2-0.6-0.5-0.8-0.5c-0.3,0-0.6,0.3-1,0.5c0.3,0.2,0.5,0.5,0.9,0.9C28,38.2,28.3,38,28.5,37.7
		z"/>
	<path class="st1" d="M44,30c-0.4,0.1-0.7,0.4-1,0.6c0.2,0.2,0.3,0.5,0.7,0.9c0.4-0.4,0.7-0.7,1-1C44.4,30.3,44.1,29.9,44,30z"/>
	<path class="st1" d="M49.5,33.6c-0.3,0-0.6,0.4-0.9,0.6c0.2,0.2,0.5,0.4,0.8,0.7c0.3-0.3,0.6-0.6,0.8-0.8
		C50,34,49.7,33.6,49.5,33.6z"/>
	<path class="st1" d="M25.4,34c-0.3,0.2-0.6,0.5-0.8,0.7c0.2,0.2,0.5,0.5,0.6,0.5c0.3-0.1,0.6-0.4,1.2-0.7
		C25.8,34.2,25.5,33.9,25.4,34z"/>
	<path class="st1" d="M44.9,32.3c0,0.1,0.3,0.4,0.5,0.5c0.3-0.3,0.7-0.5,0.9-0.9c0.1-0.1-0.3-0.4-0.5-0.9
		C45.3,31.6,45,31.9,44.9,32.3z"/>
	<path class="st1" d="M32.6,29.3c-0.4-0.4-0.6-0.7-0.9-0.9c-0.1,0-0.6,0.4-0.6,0.5c0.2,0.4,0.4,0.7,0.7,0.9
		C31.8,29.9,32.2,29.6,32.6,29.3z"/>
	<path class="st1" d="M49.2,32c0.1-0.1-0.3-0.4-0.6-0.8c-0.4,0.5-0.6,0.8-0.8,1.1c0.2,0.2,0.5,0.5,0.7,0.5
		C48.8,32.6,49.1,32.3,49.2,32z"/>
</g>
</svg>
