<?xml version="1.0" encoding="utf-8"?>
<!-- Generator: Adobe Illustrator 23.0.1, SVG Export Plug-In . SVG Version: 6.00 Build 0)  -->
<svg version="1.1" id="Layer_1" xmlns="http://www.w3.org/2000/svg" xmlns:xlink="http://www.w3.org/1999/xlink" x="0px" y="0px"
	 width="65.2px" height="81.1px" viewBox="0 0 65.2 81.1" style="enable-background:new 0 0 65.2 81.1;" xml:space="preserve">
<style type="text/css">
	.st0{fill:#19204B;}
	.st1{fill:#FFFFFF;}
	.st2{fill:#6190CB;}
</style>
<g>
	<path class="st1" d="M28.3,15h7.4c0.5,0,0.8-0.4,0.8-0.8c0-0.4-0.4-0.8-0.8-0.8l-0.2,0l-0.1-0.2c-0.3-0.9-0.6-1.4-0.9-1.8
		c-0.3-0.4-0.4-0.6-0.5-1.1c0-0.1,0-0.4,0-0.6c0-0.5,0.1-1.3-0.3-2l-0.1-0.1l0.1-0.1C34.2,6.8,34.3,6,34.3,6
		c0.1-0.8-0.3-1.8-0.7-2.6c-0.1-0.3-0.3-0.6-0.3-0.8l-0.1-0.2l0.1-0.1c0.1-0.1,0.2-0.3,0.2-0.5c0.1-0.9-0.3-1.5-1.1-1.8
		C32.3,0,32.1,0,32,0l0,0l0,0c-0.1,0-0.2,0-0.4,0c-0.9,0.4-1.2,0.9-1,1.7C30.6,2,30.7,2.3,30.5,3c-0.1,0.2-0.2,0.4-0.3,0.7
		c-0.3,0.6-0.7,1.3-0.5,2.2c0,0,0.2,0.8,0.6,1.6l0.1,0.1l-0.1,0.1c-0.4,0.6-0.3,1.5-0.3,1.9c0,0.2,0,0.4,0,0.6
		c0,0.4-0.2,0.6-0.4,0.9c-0.3,0.4-0.7,1-1,2l0,0.2l-0.2,0c-0.4,0-0.8,0.4-0.8,0.8C27.5,14.6,27.9,15,28.3,15z M31.6,4.4L32,3.7
		l0.2,0.5c0.4,0.8,0.5,1.3,0.5,1.5l0,0c0,0.2-0.3,0.8-0.4,1.1l-0.2,0.4l-0.3-0.4c-0.2-0.3-0.5-1-0.6-1.3C31.2,5.3,31.4,4.9,31.6,4.4
		z M30.3,13c0.1-0.4,0.3-0.6,0.5-0.9c0.3-0.4,0.7-0.9,0.8-1.7c0-0.3,0-0.6,0-0.8c0-0.3,0-0.6,0-0.8l0-0.2l0.2,0c0,0,0,0,0.1,0l0.1,0
		l0.1,0.1c0.1,0,0.1,0.1,0.2,0.1l0.2,0l0,0.2c0,0.2,0,0.5,0,0.8c0,0.3,0,0.6,0,0.8c0.1,0.9,0.4,1.4,0.7,1.8c0.2,0.2,0.3,0.4,0.4,0.7
		l0.2,0.4h-3.7L30.3,13z"/>
	<path class="st1" d="M9.8,50l0.3,0v7.8h1.6V50h41.5v8.1h1.6V50h0.7c0.5,0,0.8-0.4,0.8-0.8c0-0.3-0.1-0.5-0.4-0.7l-0.1-0.1l0-0.1
		c-0.1-0.6-0.7-1.9-2.4-2.2l-0.1,0l-1.6-2.2c-0.1-0.1-0.1-0.2-0.2-0.2l-0.1-0.1l0-0.1c-0.2-1.2-2-11.7-11.9-16.5l-0.2-0.1v-2.3
		c0-0.5-0.4-0.8-0.8-0.8h-1.3v-2c0-0.5-0.4-0.8-0.8-0.8h-0.7v-4.5h-1.6V21h-1.3v-4.5h-1.6V21h-1.3v-4.5h-1.6V21h-0.7
		c-0.5,0-0.8,0.4-0.8,0.8v2h-1.3c-0.5,0-0.8,0.4-0.8,0.8v2.2l-0.2,0.1c-10.2,4.9-12,16.2-12,16.6l0,0.2l-0.1,0.1
		c0,0.1-0.1,0.1-0.1,0.2l-0.8,2c0,0,0,0,0,0l0,0.1l-0.1,0c-1.5,0.5-2,1.9-2.1,2.6l0,0l0,0.1c0,0.1,0,0.2,0,0.2
		C9.1,49.6,9.4,50,9.8,50z M38.7,28.3c8.2,3.9,10.6,12.4,11.1,14.9l0.1,0.3l-7.9,0l0-0.3c0-2.6-0.6-9.1-5.1-14.5l-0.4-0.4L38.7,28.3
		L38.7,28.3z M40.4,43.5l-7.4,0V28.3h1.3l0.1,0.1c5.2,5.2,5.9,12.1,6,14.9L40.4,43.5z M28.3,22.7h7.4v1.1h-7.4V22.7z M26.2,25.5
		h11.7v1.2H26.2V25.5z M31.3,28.3v15.2l-7.6,0l0-0.3c0.1-2.7,0.8-9.7,6-14.8l0.1-0.1H31.3z M14.1,43.1c0.5-2.5,3-10.9,11.1-14.8
		l0.1,0l2.3,0l-0.4,0.4c-4.4,5.4-5,11.9-5.1,14.5l0,0.3l-8.1,0L14.1,43.1z M11.5,47.9c0.2-0.1,0.4-0.2,0.7-0.2
		c0.4,0,0.8-0.4,0.8-0.9c0,0,0-0.1,0-0.1l0-0.1l0-0.1l0.6-1.4l37.3,0.1l1.3,1.8c0,0.1,0.1,0.1,0.1,0.2l0,0l0,0
		c0.1,0.3,0.4,0.4,0.7,0.4c0.3,0,0.5,0.1,0.7,0.2l1,0.5H10.5L11.5,47.9z"/>
	<path class="st1" d="M14.1,52.8L14.1,52.8c0,0,0,0.1,0,0.1v5h1.6v-5c0-0.3-0.4-0.6-0.8-0.6C14.5,52.2,14.2,52.5,14.1,52.8z"/>
	<path class="st1" d="M19.8,52.9v5h1.9v-5c0-0.3-0.4-0.6-1-0.6S19.8,52.6,19.8,52.9z"/>
	<path class="st1" d="M25.8,52.8L25.8,52.8c0,0,0,0.1,0,0.1v5h1.6v-5c0-0.3-0.4-0.6-0.8-0.6C26.2,52.2,25.9,52.5,25.8,52.8z"/>
	<path class="st1" d="M31.5,52.8L31.5,52.8c0,0,0,0.1,0,0.1v5h1.6v-5c0-0.3-0.4-0.6-0.8-0.6C31.9,52.2,31.6,52.5,31.5,52.8z"/>
	<path class="st1" d="M37.5,52.8L37.5,52.8c0,0,0,0.1,0,0.1v5h1.6v-5c0-0.3-0.4-0.6-0.8-0.6C37.9,52.2,37.6,52.5,37.5,52.8z"/>
	<path class="st1" d="M43.2,52.8L43.2,52.8c0,0,0,0.1,0,0.1v5h1.6v-5c0-0.3-0.4-0.6-0.8-0.6C43.6,52.2,43.3,52.5,43.2,52.8z"/>
	<path class="st1" d="M48.9,52.9v5h1.9v-5c0-0.3-0.4-0.6-1-0.6S48.9,52.6,48.9,52.9z"/>
	<path class="st1" d="M64.4,62.5l-0.3,0l0-1.8c0-0.1,0-0.2,0-0.2c0-0.5-0.4-0.8-0.8-0.8H1.9c-0.5,0-0.8,0.4-0.8,0.8
		c0,0.1,0,0.2,0.1,0.3l0.1,0.1l0,0.1c0,0.1-0.1,0.2-0.1,0.3v1.2l-0.3,0c-0.4,0-0.8,0.4-0.8,0.8c0,0.2,0.1,0.4,0.2,0.5l0.1,0.1l0,0.1
		c0,0.1,0,0.2,0,0.3l0.8,2.5c0.1,0.2,0.3,0.4,0.5,0.5l0.1,0L2.8,69v12h1.6V68.5l-0.8-1.1h3.9l0.1,0.2c0,0,0,0.1,0.1,0.1L8.7,69v8.8
		c0,0.5,0.4,0.8,0.8,0.8s0.8-0.4,0.8-0.8v-9c0-0.2,0-0.3-0.1-0.5l-0.6-0.9h4.3l0.1,0.2c0,0,0,0.1,0.1,0.1l0.9,1.3v8.8
		c0,0.5,0.4,0.8,0.8,0.8c0.5,0,0.8-0.4,0.8-0.8v-9c0-0.2,0-0.3-0.1-0.5l-0.6-0.9h4.4l0.1,0.2c0,0,0,0.1,0.1,0.1l0.9,1.3v8.9
		c0,0.5,0.4,0.8,0.8,0.8s0.8-0.4,0.8-0.8v-9.2c0-0.2,0-0.3-0.1-0.5l-0.6-0.9h4.8l0.1,0.2c0,0,0,0.1,0.1,0.1L28,69v11.3
		c0,0.5,0.4,0.8,0.8,0.8s0.8-0.4,0.8-0.8V68.7c0-0.2,0-0.3-0.1-0.5l-0.6-0.9h6.9l-0.6,0.9c-0.1,0.1-0.1,0.3-0.1,0.5v11.5
		c0,0.5,0.4,0.8,0.8,0.8s0.8-0.4,0.8-0.8V69l0.9-1.3c0,0,0-0.1,0.1-0.1l0.1-0.2H43l-0.6,0.9c-0.1,0.1-0.1,0.3-0.1,0.5v8.7
		c0,0.5,0.4,0.8,0.8,0.8s0.8-0.4,0.8-0.8V69l0.9-1.3c0,0,0-0.1,0.1-0.1l0.1-0.2h4.8l-0.6,0.9c-0.1,0.1-0.1,0.3-0.1,0.5v9
		c0,0.5,0.4,0.8,0.8,0.8s0.8-0.4,0.8-0.8V69l0.9-1.3c0,0,0-0.1,0.1-0.1l0.1-0.2h4.3l-0.6,0.9c-0.1,0.1-0.1,0.3-0.1,0.5v9.1
		c0,0.5,0.4,0.8,0.8,0.8c0.5,0,0.8-0.4,0.8-0.8V69l0.9-1.3c0,0,0-0.1,0.1-0.1l0.1-0.2h4l-0.5,1.2v12.4H63V68.9l0.7-1.6l0.1,0
		c0.2-0.1,0.3-0.3,0.3-0.4l0.8-2.6c0-0.1,0-0.1,0-0.2l0-0.1l0.1-0.1c0.1-0.1,0.2-0.3,0.2-0.5C65.2,62.8,64.8,62.5,64.4,62.5z
		 M62.7,65.7H2.5l-0.5-1.6h2.9c0.5,0,0.8-0.4,0.8-0.8s-0.4-0.8-0.8-0.8H2.7v-1.2h59.8v1.2h-2.9c-0.5,0-0.8,0.4-0.8,0.8
		s0.4,0.8,0.8,0.8h3.6L62.7,65.7z"/>
	<path class="st1" d="M56.3,62.5h-4c-0.5,0-0.8,0.4-0.8,0.8s0.4,0.8,0.8,0.8h4c0.5,0,0.8-0.4,0.8-0.8S56.7,62.5,56.3,62.5z"/>
	<path class="st1" d="M48.5,62.5h-0.1c-0.5,0-0.8,0.4-0.8,0.8s0.4,0.8,0.8,0.8h0.1c0.5,0,0.8-0.4,0.8-0.8S49,62.5,48.5,62.5z"/>
	<path class="st1" d="M44.6,62.5h-26c-0.5,0-0.8,0.4-0.8,0.8s0.4,0.8,0.8,0.8h26c0.5,0,0.8-0.4,0.8-0.8S45.1,62.5,44.6,62.5z"/>
	<path class="st1" d="M15.5,62.5h-0.1c-0.5,0-0.8,0.4-0.8,0.8s0.4,0.8,0.8,0.8h0.1c0.5,0,0.8-0.4,0.8-0.8S16,62.5,15.5,62.5z"/>
	<path class="st1" d="M12.2,62.5H7.8c-0.5,0-0.8,0.4-0.8,0.8s0.4,0.8,0.8,0.8h4.4c0.5,0,0.8-0.4,0.8-0.8S12.7,62.5,12.2,62.5z"/>
	<path class="st1" d="M39.5,71.5c-0.6,0-1,0.4-1,0.9V81l2.1,0v-8.6C40.5,71.9,40,71.5,39.5,71.5z"/>
	<path class="st1" d="M25.4,71.5c-0.6,0-1,0.4-1,0.9V81l2.1,0v-8.6C26.5,71.9,26,71.5,25.4,71.5z"/>
	<path class="st1" d="M32.3,71.5c-0.6,0-1,0.4-1,0.9V81l2.1,0v-8.6C33.4,71.9,32.9,71.5,32.3,71.5z"/>
	<path class="st1" d="M19,71.5c-0.6,0-1,0.4-1,0.9V81l2.1,0v-8.6C20,71.9,19.6,71.5,19,71.5z"/>
	<path class="st1" d="M46.4,71.5c-0.6,0-1,0.4-1,0.9V81l2.1,0v-8.6C47.5,71.9,47,71.5,46.4,71.5z"/>
	<path class="st1" d="M12.7,71.5c-0.6,0-1,0.4-1,0.9V81l2.1,0v-8.6C13.8,71.9,13.3,71.5,12.7,71.5z"/>
	<path class="st1" d="M6.6,71.5c-0.6,0-1,0.4-1,0.9V81l2.1,0v-8.6C7.6,71.9,7.2,71.5,6.6,71.5z"/>
	<path class="st1" d="M52.8,71.5c-0.6,0-1,0.4-1,0.9V81l2.1,0v-8.6C53.9,71.9,53.4,71.5,52.8,71.5z"/>
	<path class="st1" d="M59.1,71.5c-0.6,0-1,0.4-1,0.9V81l2.1,0v-8.6C60.2,71.9,59.7,71.5,59.1,71.5z"/>
</g>
</svg>
