<?xml version="1.0" encoding="utf-8"?>
<!-- Generator: Adobe Illustrator 23.0.1, SVG Export Plug-In . SVG Version: 6.00 Build 0)  -->
<svg version="1.1" id="Layer_1" xmlns="http://www.w3.org/2000/svg" xmlns:xlink="http://www.w3.org/1999/xlink" x="0px" y="0px"
	 width="230.8px" height="125.2px" viewBox="0 0 230.8 125.2" style="enable-background:new 0 0 230.8 125.2;" xml:space="preserve"
	>
<style type="text/css">
	.st0{fill:#FFFFFF;}
	.st1{fill:#EA434A;}
	.st2{fill:#19204B;}
	.st3{fill:#EA444B;}
	.st4{fill-rule:evenodd;clip-rule:evenodd;fill:#18214B;}
	.st5{fill:#18214B;}
	.st6{fill:#6190CB;}
</style>
<g>
	<polygon class="st4" points="0,100.5 100.5,100.5 100.5,0 0,0 0,28.6 9.2,28.6 9.2,9.2 91.4,9.2 91.4,91.4 9.2,91.4 9.2,71.9 
		0,71.9 0,100.5 	"/>
	<path class="st5" d="M224,90v3h1.5c1.3,0,2-0.5,2-1.5c0-0.6-0.2-0.9-0.5-1.2c-0.4-0.2-1-0.3-1.8-0.3H224L224,90z M220.8,87.7h5.8
		c1.3,0,2.3,0.4,3.1,1.1c0.8,0.8,1.2,1.7,1.2,2.7c0,1.1-0.4,2-1.1,2.7c-0.8,0.8-1.8,1.1-3.1,1.1H224v5.2h-3.2V87.7L220.8,87.7z
		 M218.8,98.2v2.4H209V87.7h3.2v10.5H218.8L218.8,98.2z M207.2,98.2v2.4h-9.8V87.7h3.2v10.5H207.2L207.2,98.2z M190.8,91.8v1.9h-3.2
		v3.6c0,0.4,0.1,0.8,0.4,1c0.2,0.2,0.6,0.4,1,0.4c0.6,0,1.2-0.2,1.8-0.5v2c-0.9,0.4-1.7,0.5-2.5,0.5c-1.1,0-1.9-0.3-2.5-0.8
		c-0.6-0.6-0.9-1.4-0.9-2.4v-3.8h-1.2v-0.5l3.6-4.1h0.3v2.7H190.8L190.8,91.8z M177.8,99.1c1.3,0,2-1,2-3c0-1.9-0.7-2.8-2-2.8
		c-0.6,0-1.1,0.2-1.5,0.7c-0.4,0.5-0.5,1.2-0.5,2.2C175.8,98.1,176.5,99.1,177.8,99.1L177.8,99.1z M177.8,91.6
		c1.4,0,2.5,0.4,3.5,1.2c1,0.8,1.4,1.9,1.4,3.4c0,1.4-0.5,2.6-1.4,3.3c-1,0.8-2.1,1.2-3.5,1.2c-1.4,0-2.6-0.4-3.5-1.3
		c-0.9-0.8-1.4-1.9-1.4-3.3c0-1.4,0.5-2.5,1.4-3.3C175.2,92.1,176.4,91.6,177.8,91.6L177.8,91.6z M166.6,99.1c1.3,0,2-1,2-3
		c0-1.9-0.7-2.8-2-2.8c-0.6,0-1.1,0.2-1.5,0.7c-0.4,0.5-0.5,1.2-0.5,2.2C164.6,98.1,165.3,99.1,166.6,99.1L166.6,99.1z M166.6,91.6
		c1.4,0,2.5,0.4,3.5,1.2c1,0.8,1.4,1.9,1.4,3.4c0,1.4-0.5,2.6-1.4,3.3c-1,0.8-2.1,1.2-3.5,1.2c-1.4,0-2.6-0.4-3.5-1.3
		c-0.9-0.8-1.4-1.9-1.4-3.3c0-1.4,0.5-2.5,1.4-3.3C164,92.1,165.2,91.6,166.6,91.6L166.6,91.6z M159.7,91.8h1.2v1.9h-1.2v6.8H157
		v-6.8h-1.2v-1.9h1.2v-0.4c0-1.2,0.3-2.2,1-2.9c0.7-0.7,1.6-1,2.8-1c0.3,0,0.8,0.1,1.7,0.2v2.2c-0.6-0.1-1-0.1-1.2-0.1
		c-1,0-1.5,0.5-1.5,1.5V91.8L159.7,91.8z M155.2,91.8v1.9H152v3.6c0,0.4,0.1,0.8,0.4,1c0.2,0.2,0.6,0.4,1,0.4c0.6,0,1.2-0.2,1.8-0.5
		v2c-0.9,0.4-1.7,0.5-2.5,0.5c-1.1,0-1.9-0.3-2.5-0.8c-0.6-0.6-0.9-1.4-0.9-2.4v-3.8H148v-0.5l3.6-4.1h0.3v2.7H155.2L155.2,91.8z
		 M140.7,87.7v5.4h0c0.8-1,1.7-1.5,2.7-1.5c0.9,0,1.7,0.3,2.3,0.9c0.6,0.6,0.9,1.4,0.9,2.5v5.6h-2.7v-5c0-1.3-0.5-1.9-1.4-1.9
		c-0.6,0-1.2,0.4-1.8,1.3v5.6h-2.7V87.7H140.7L140.7,87.7z M131.8,103.3c0.6,0,1.1-0.1,1.4-0.3c0.4-0.2,0.5-0.5,0.5-0.8
		c0-0.6-0.7-1-2.1-1c-0.6,0-1.1,0.1-1.5,0.3c-0.4,0.2-0.6,0.4-0.6,0.8C129.6,102.9,130.3,103.3,131.8,103.3L131.8,103.3z
		 M131.6,93.5c-0.5,0-0.8,0.2-1.1,0.5c-0.3,0.3-0.5,0.7-0.5,1.1c0,0.4,0.2,0.8,0.5,1.1c0.3,0.3,0.7,0.5,1.1,0.5
		c0.4,0,0.8-0.2,1.1-0.5c0.3-0.3,0.5-0.7,0.5-1.2c0-0.4-0.1-0.8-0.4-1.1C132.4,93.6,132.1,93.5,131.6,93.5L131.6,93.5z M136.5,91.8
		v1.8h-1.2c0.3,0.5,0.4,1,0.4,1.4c0,0.7-0.3,1.3-0.8,1.9c-0.5,0.6-1.3,0.9-2.2,1c-1,0.1-1.5,0.2-1.7,0.3c-0.1,0.1-0.2,0.2-0.2,0.4
		c0,0.2,0.1,0.3,0.3,0.4c0.2,0.1,0.9,0.2,2,0.3c1.2,0.1,2,0.4,2.5,0.9c0.5,0.5,0.7,1.1,0.7,1.7c0,1-0.4,1.7-1.2,2.2
		c-0.8,0.5-1.9,0.7-3.4,0.7c-1.5,0-2.7-0.2-3.5-0.7c-0.8-0.5-1.2-1.1-1.2-1.8c0-1.1,0.8-1.8,2.3-2.2c-0.7-0.2-1.1-0.6-1.1-1.1
		c0-0.6,0.5-1.1,1.6-1.3c-0.7-0.1-1.3-0.4-1.8-0.9c-0.5-0.5-0.7-1.1-0.7-1.8c0-0.8,0.3-1.6,1-2.2c0.7-0.6,1.6-1,2.9-1H136.5
		L136.5,91.8z M125.3,91.8v8.7h-2.7v-8.7H125.3L125.3,91.8z M122.4,89c0-0.4,0.1-0.8,0.4-1.1c0.3-0.3,0.6-0.4,1.1-0.4
		c0.4,0,0.8,0.1,1.1,0.4c0.3,0.3,0.4,0.7,0.4,1.1c0,0.4-0.1,0.8-0.4,1.1c-0.3,0.3-0.7,0.4-1.1,0.4c-0.4,0-0.8-0.1-1.1-0.4
		C122.6,89.7,122.4,89.4,122.4,89L122.4,89z M121.1,98.2v2.4h-9.8V87.7h3.2v10.5H121.1L121.1,98.2z M199.4,75.9l-2.3-2.5
		c-0.9,0.6-1.3,1.2-1.3,1.8c0,0.4,0.2,0.8,0.5,1.1c0.3,0.3,0.7,0.5,1.1,0.5C198,76.7,198.7,76.4,199.4,75.9L199.4,75.9z M198.3,70.4
		c0.9-0.5,1.3-1,1.3-1.6c0-0.3-0.1-0.6-0.3-0.8c-0.2-0.2-0.5-0.3-0.9-0.3c-0.3,0-0.6,0.1-0.9,0.3c-0.2,0.2-0.3,0.4-0.3,0.7
		C197.2,69.2,197.6,69.7,198.3,70.4L198.3,70.4z M203,71.9h2.8c-0.7,1.7-1.6,3-2.6,3.9l2.6,2.8h-3.9l-0.9-1
		c-1.2,0.8-2.6,1.2-4.1,1.2c-1.2,0-2.1-0.3-2.9-1c-0.8-0.7-1.2-1.5-1.2-2.4c0-1.5,1-2.7,2.9-3.7c-0.8-1.1-1.2-2-1.2-2.9
		c0-1,0.4-1.7,1.1-2.4c0.7-0.6,1.7-0.9,2.8-0.9c1.1,0,2,0.3,2.7,0.9c0.7,0.6,1,1.3,1,2.2c0,1.3-0.8,2.4-2.4,3.3l1.8,2
		C202,73.4,202.5,72.7,203,71.9L203,71.9z M185.8,70.4v1.9c-1-0.6-2-0.9-2.9-0.9c-0.7,0-1,0.2-1,0.7c0,0.1,0.1,0.2,0.2,0.3
		c0.1,0.1,0.7,0.4,1.6,0.7c0.9,0.4,1.6,0.8,2,1.3c0.4,0.5,0.6,1,0.6,1.6c0,0.9-0.3,1.6-0.9,2.1c-0.6,0.5-1.5,0.7-2.6,0.7
		c-1.2,0-2.2-0.2-3.1-0.6v-1.9c1.1,0.5,2.1,0.7,2.8,0.7c0.9,0,1.3-0.2,1.3-0.6c0-0.2-0.1-0.3-0.2-0.5c-0.2-0.1-0.7-0.4-1.6-0.8
		c-0.9-0.4-1.6-0.8-1.9-1.2c-0.3-0.4-0.5-0.9-0.5-1.5c0-0.8,0.3-1.4,1-1.9c0.7-0.5,1.5-0.7,2.6-0.7C184,69.7,185,69.9,185.8,70.4
		L185.8,70.4z M177.5,69.9v8.7h-2.7v-8.7H177.5L177.5,69.9z M174.6,67.1c0-0.4,0.1-0.8,0.4-1.1c0.3-0.3,0.6-0.4,1.1-0.4
		c0.4,0,0.8,0.1,1.1,0.4c0.3,0.3,0.4,0.7,0.4,1.1c0,0.4-0.1,0.8-0.4,1.1c-0.3,0.3-0.7,0.4-1.1,0.4c-0.4,0-0.8-0.1-1.1-0.4
		C174.7,67.8,174.6,67.5,174.6,67.1L174.6,67.1z M172.4,65.7v12.9h-2.7V65.7H172.4L172.4,65.7z M162.8,77.2c1.3,0,2-1,2-3
		c0-1.9-0.7-2.8-2-2.8c-0.6,0-1.1,0.2-1.5,0.7c-0.4,0.5-0.5,1.2-0.5,2.2C160.8,76.2,161.5,77.2,162.8,77.2L162.8,77.2z M162.8,69.7
		c1.4,0,2.5,0.4,3.5,1.2c1,0.8,1.4,1.9,1.4,3.4c0,1.4-0.5,2.6-1.4,3.3c-1,0.8-2.1,1.2-3.5,1.2c-1.4,0-2.6-0.4-3.5-1.3
		c-0.9-0.8-1.4-1.9-1.4-3.3c0-1.4,0.5-2.5,1.4-3.3C160.3,70.1,161.4,69.7,162.8,69.7L162.8,69.7z M153,76.5v-2.1
		c-0.9,0.3-1.5,0.6-1.9,0.9c-0.3,0.3-0.5,0.6-0.5,1c0,0.3,0.1,0.5,0.3,0.7c0.2,0.2,0.4,0.3,0.6,0.3C152,77.2,152.5,77,153,76.5
		L153,76.5z M157.2,76.5V78c-0.9,0.5-1.8,0.8-2.6,0.8c-0.9,0-1.4-0.3-1.5-1c-1,0.7-1.9,1-2.9,1c-0.7,0-1.3-0.2-1.7-0.6
		c-0.5-0.4-0.7-0.9-0.7-1.5c0-0.8,0.2-1.4,0.7-1.8c0.5-0.5,2-1.1,4.4-1.8c0.1-1-0.4-1.5-1.5-1.5c-1.2,0-2.2,0.5-3.2,1.5v-2.2
		c1.1-0.7,2.4-1.1,3.8-1.1c2.5,0,3.7,0.9,3.7,2.7v4c0,0.4,0.2,0.6,0.5,0.6C156.4,77,156.7,76.8,157.2,76.5L157.2,76.5z M140.1,68.1
		v3h1.5c1.3,0,2-0.5,2-1.5c0-0.6-0.2-0.9-0.5-1.2c-0.4-0.2-1-0.3-1.8-0.3H140.1L140.1,68.1z M136.9,65.7h5.8c1.3,0,2.3,0.4,3.1,1.1
		c0.8,0.8,1.2,1.7,1.2,2.7c0,1.1-0.4,2-1.1,2.7c-0.8,0.8-1.8,1.1-3.1,1.1h-2.6v5.2h-3.2V65.7L136.9,65.7z M128.5,73.3h3.8
		c-0.1-1.3-0.8-1.9-1.9-1.9C129.3,71.4,128.6,72,128.5,73.3L128.5,73.3z M134.6,75.9v1.7c-1,0.8-2.3,1.1-3.9,1.1
		c-1.5,0-2.8-0.4-3.7-1.2c-0.9-0.8-1.4-1.9-1.4-3.3c0-1.3,0.4-2.4,1.3-3.3c0.9-0.9,2-1.3,3.3-1.3c1.3,0,2.4,0.5,3.3,1.4
		c0.9,0.9,1.3,2.1,1.2,3.6h-6.3c0.1,0.8,0.3,1.4,0.8,1.8c0.5,0.4,1.2,0.6,2,0.6C132.4,77.2,133.4,76.8,134.6,75.9L134.6,75.9z
		 M114.4,68.1v8.2h2.1c1.4,0,2.4-0.4,3.1-1.1c0.7-0.7,1.1-1.7,1.1-3c0-1.3-0.4-2.3-1.1-3c-0.7-0.7-1.8-1.1-3.1-1.1H114.4L114.4,68.1
		z M111.2,65.7h5.7c2.2,0,3.9,0.6,5.2,1.8c1.3,1.2,1.9,2.8,1.9,4.7c0,2-0.6,3.6-1.9,4.7c-1.3,1.1-3.1,1.7-5.5,1.7h-5.3V65.7
		L111.2,65.7z M172.1,48v1.2c0.8-0.9,1.8-1.4,2.8-1.4c0.9,0,1.7,0.3,2.3,0.9c0.6,0.6,0.9,1.4,0.9,2.5v5.5h-2.7v-5.3
		c0-1.2-0.5-1.7-1.4-1.7c-0.6,0-1.3,0.5-1.9,1.4v5.6h-2.7V48H172.1L172.1,48z M162.6,55.3c1.3,0,2-1,2-3c0-1.9-0.7-2.8-2-2.8
		c-0.6,0-1.1,0.2-1.5,0.7c-0.4,0.5-0.5,1.2-0.5,2.2C160.6,54.3,161.3,55.3,162.6,55.3L162.6,55.3z M162.6,47.8
		c1.4,0,2.5,0.4,3.5,1.2c1,0.8,1.4,1.9,1.4,3.4c0,1.4-0.5,2.6-1.4,3.3c-1,0.8-2.1,1.2-3.5,1.2c-1.4,0-2.6-0.4-3.5-1.3
		c-0.9-0.8-1.4-1.9-1.4-3.3c0-1.4,0.5-2.5,1.4-3.3C160.1,48.2,161.2,47.8,162.6,47.8L162.6,47.8z M156.1,48.5v1.9
		c-1-0.6-2-0.9-2.9-0.9c-0.7,0-1,0.2-1,0.7c0,0.1,0.1,0.2,0.2,0.3c0.1,0.1,0.7,0.4,1.6,0.7c0.9,0.4,1.6,0.8,2,1.3
		c0.4,0.5,0.6,1,0.6,1.6c0,0.9-0.3,1.6-0.9,2.1c-0.6,0.5-1.5,0.7-2.6,0.7c-1.2,0-2.2-0.2-3.1-0.6v-1.9c1.1,0.5,2.1,0.7,2.8,0.7
		c0.9,0,1.3-0.2,1.3-0.6c0-0.2-0.1-0.3-0.2-0.5c-0.2-0.1-0.7-0.4-1.6-0.8c-0.9-0.4-1.6-0.8-1.9-1.2c-0.3-0.4-0.5-0.9-0.5-1.5
		c0-0.8,0.3-1.4,1-1.9c0.7-0.5,1.5-0.7,2.6-0.7C154.3,47.8,155.2,48,156.1,48.5L156.1,48.5z M141.8,48v1.2c0.8-0.9,1.8-1.4,2.8-1.4
		c0.9,0,1.7,0.3,2.3,0.9c0.6,0.6,0.9,1.4,0.9,2.5v5.5h-2.7v-5.3c0-1.2-0.5-1.7-1.4-1.7c-0.6,0-1.3,0.5-1.9,1.4v5.6h-2.7V48H141.8
		L141.8,48z M130.8,43.8v5.4h0c0.8-1,1.7-1.5,2.7-1.5c0.9,0,1.7,0.3,2.3,0.9c0.6,0.6,0.9,1.4,0.9,2.5v5.6h-2.7v-5
		c0-1.3-0.5-1.9-1.4-1.9c-0.6,0-1.2,0.4-1.8,1.3v5.6h-2.7V43.8H130.8L130.8,43.8z M121.3,55.3c1.3,0,2-1,2-3c0-1.9-0.7-2.8-2-2.8
		c-0.6,0-1.1,0.2-1.5,0.7c-0.4,0.5-0.5,1.2-0.5,2.2C119.3,54.3,120,55.3,121.3,55.3L121.3,55.3z M121.3,47.8c1.4,0,2.5,0.4,3.5,1.2
		c1,0.8,1.4,1.9,1.4,3.4c0,1.4-0.5,2.6-1.4,3.3c-1,0.8-2.1,1.2-3.5,1.2c-1.4,0-2.6-0.4-3.5-1.3c-0.9-0.8-1.4-1.9-1.4-3.3
		c0-1.4,0.5-2.5,1.4-3.3C118.7,48.2,119.9,47.8,121.3,47.8L121.3,47.8z M114.7,43.8v11.7c0,3.3-1.5,5-4.6,5c-0.3,0-0.6,0-0.9,0v-2.5
		c0.2,0,0.3,0,0.5,0c1.2,0,1.8-0.8,1.8-2.4V43.8H114.7L114.7,43.8z M200.6,26.1L194.8,39h-2.9l2.5-5.6l-3.4-7.3h2.9l1.8,4.5l2-4.5
		H200.6L200.6,26.1z M184.4,29.5h3.8c-0.1-1.3-0.8-1.9-1.9-1.9C185.2,27.5,184.6,28.2,184.4,29.5L184.4,29.5z M190.5,32.1v1.7
		c-1,0.8-2.3,1.1-3.9,1.1c-1.5,0-2.8-0.4-3.7-1.2c-0.9-0.8-1.4-1.9-1.4-3.3c0-1.3,0.4-2.4,1.3-3.3c0.9-0.9,2-1.3,3.3-1.3
		c1.3,0,2.4,0.5,3.3,1.4c0.9,0.9,1.3,2.1,1.2,3.6h-6.3c0.1,0.8,0.3,1.4,0.8,1.8c0.5,0.4,1.2,0.6,2,0.6
		C188.3,33.4,189.4,32.9,190.5,32.1L190.5,32.1z M173.7,26.1v1.2c0.8-0.9,1.8-1.4,2.8-1.4c0.9,0,1.7,0.3,2.3,0.9
		c0.6,0.6,0.9,1.4,0.9,2.5v5.5H177v-5.3c0-1.2-0.5-1.7-1.4-1.7c-0.6,0-1.3,0.5-1.9,1.4v5.6H171v-8.7H173.7L173.7,26.1z M162.7,26.1
		v1.2c0.8-0.9,1.8-1.4,2.8-1.4c0.9,0,1.7,0.3,2.3,0.9c0.6,0.6,0.9,1.4,0.9,2.5v5.5H166v-5.3c0-1.2-0.5-1.7-1.4-1.7
		c-0.6,0-1.3,0.5-1.9,1.4v5.6H160v-8.7H162.7L162.7,26.1z M152,29.5h3.8c-0.1-1.3-0.8-1.9-1.9-1.9C152.8,27.5,152.1,28.2,152,29.5
		L152,29.5z M158,32.1v1.7c-1,0.8-2.3,1.1-3.9,1.1c-1.5,0-2.8-0.4-3.7-1.2c-0.9-0.8-1.4-1.9-1.4-3.3c0-1.3,0.4-2.4,1.3-3.3
		c0.9-0.9,2-1.3,3.3-1.3c1.3,0,2.4,0.5,3.3,1.4c0.9,0.9,1.3,2.1,1.2,3.6h-6.3c0.1,0.8,0.3,1.4,0.8,1.8c0.5,0.4,1.2,0.6,2,0.6
		C155.8,33.4,156.9,32.9,158,32.1L158,32.1z M148.2,21.9L144,28l5.7,6.8h-4l-5.1-6v6h-3.2V21.9h3.2v5.8l4.1-5.8H148.2L148.2,21.9z
		 M135.2,32.4v2c-1.1,0.4-2.1,0.6-2.9,0.6c-1.5,0-2.8-0.4-3.7-1.2c-0.9-0.8-1.4-1.9-1.4-3.3c0-1.3,0.5-2.4,1.4-3.3
		c0.9-0.9,2.1-1.3,3.5-1.3c0.9,0,1.9,0.2,2.9,0.6v2c-0.8-0.4-1.5-0.6-2.2-0.6c-0.8,0-1.5,0.2-2,0.7c-0.5,0.5-0.7,1.1-0.7,1.8
		c0,0.8,0.2,1.4,0.7,1.9c0.5,0.5,1.1,0.7,1.9,0.7C133.4,33,134.2,32.8,135.2,32.4L135.2,32.4z M118.2,26.7l4.1-4.8h2.8v12.9h-3.2v-8
		l-3.5,4h-0.5l-3.5-4v8h-3.2V21.9h2.8L118.2,26.7L118.2,26.7z M156.5,4.2h8.5l-4.5,6.8h4.5v1.9h-8.9l4.5-6.8h-4V4.2L156.5,4.2z
		 M148.6,4.2v1.2c0.8-0.9,1.8-1.4,2.8-1.4c0.9,0,1.7,0.3,2.3,0.9c0.6,0.6,0.9,1.4,0.9,2.5v5.5h-2.7V7.6c0-1.2-0.5-1.7-1.4-1.7
		c-0.6,0-1.3,0.5-1.9,1.4v5.6h-2.7V4.2H148.6L148.6,4.2z M139.1,11.5c1.3,0,2-1,2-3c0-1.9-0.7-2.8-2-2.8c-0.6,0-1.1,0.2-1.5,0.7
		c-0.4,0.5-0.5,1.2-0.5,2.2C137.1,10.5,137.8,11.5,139.1,11.5L139.1,11.5z M139.1,4c1.4,0,2.5,0.4,3.5,1.2c1,0.8,1.4,1.9,1.4,3.4
		c0,1.4-0.5,2.6-1.4,3.3c-1,0.8-2.1,1.2-3.5,1.2c-1.4,0-2.6-0.4-3.5-1.3c-0.9-0.8-1.4-1.9-1.4-3.3c0-1.4,0.5-2.5,1.4-3.3
		C136.5,4.4,137.7,4,139.1,4L139.1,4z M127.9,11.5c1.3,0,2-1,2-3c0-1.9-0.7-2.8-2-2.8c-0.6,0-1.1,0.2-1.5,0.7
		c-0.4,0.5-0.5,1.2-0.5,2.2C125.9,10.5,126.5,11.5,127.9,11.5L127.9,11.5z M127.9,4c1.4,0,2.5,0.4,3.5,1.2c1,0.8,1.4,1.9,1.4,3.4
		c0,1.4-0.5,2.6-1.4,3.3c-1,0.8-2.1,1.2-3.5,1.2c-1.4,0-2.6-0.4-3.5-1.3c-0.9-0.8-1.4-1.9-1.4-3.3c0-1.4,0.5-2.5,1.4-3.3
		C125.3,4.4,126.4,4,127.9,4L127.9,4z M122,0l-4.2,6.1l5.7,6.8h-4l-5.1-6v6h-3.2V0h3.2v5.8l4.1-5.8H122L122,0z"/>
	<path class="st5" d="M31.3,31.7L19.1,49.2l16.4,19.7H23.9L9.3,51.4v17.4H0V31.7h9.3v16.7L21,31.7H31.3L31.3,31.7z M59.2,45.5
		l11.9-13.8h8.1v37.1H70V45.7L59.9,57.3h-1.3L48.5,45.7v23.2h-9.3V31.7h8.1L59.2,45.5L59.2,45.5z"/>
	<path class="st3" d="M0,114.7h3.6c0.8,0,1.5,0.2,2,0.7c0.5,0.5,0.7,1,0.7,1.7c0,0.7-0.2,1.3-0.7,1.7c-0.5,0.5-1.1,0.7-2,0.7H2v3.3
		H0V114.7L0,114.7z M2,116.2v1.9H3c0.8,0,1.3-0.3,1.3-0.9c0-0.4-0.1-0.6-0.3-0.7c-0.2-0.1-0.6-0.2-1.1-0.2H2L2,116.2z M15.6,121.4
		v1.5h-6v-8.1h5.9v1.5h-3.9v1.7h3.7v1.5h-3.7v1.9H15.6L15.6,121.4z M19,114.7h3.6c0.8,0,1.4,0.2,1.9,0.7c0.5,0.5,0.7,1,0.7,1.7
		c0,0.9-0.5,1.6-1.4,2c0.4,0.2,0.8,0.7,1.2,1.5c0.4,0.8,0.7,1.6,1.1,2.3h-2.2c-0.1-0.3-0.4-0.8-0.7-1.5c-0.3-0.8-0.6-1.2-0.8-1.4
		c-0.2-0.2-0.5-0.3-0.7-0.3H21v3.3h-2V114.7L19,114.7z M21,116.2v1.8h1.1c0.3,0,0.6-0.1,0.8-0.2c0.2-0.2,0.3-0.4,0.3-0.7
		c0-0.6-0.4-0.9-1.1-0.9H21L21,116.2z M34.4,115.3v1.6c-1.1-0.5-1.9-0.7-2.6-0.7c-0.4,0-0.7,0.1-0.9,0.2c-0.2,0.1-0.3,0.3-0.3,0.5
		c0,0.2,0.1,0.3,0.2,0.4c0.2,0.1,0.5,0.3,1.1,0.5c0.6,0.2,1.1,0.4,1.4,0.6c0.4,0.2,0.7,0.5,0.9,0.8c0.3,0.3,0.4,0.8,0.4,1.3
		c0,0.8-0.3,1.4-0.9,1.8c-0.6,0.4-1.3,0.7-2.3,0.7c-1,0-2-0.3-2.9-0.8v-1.7c0.5,0.4,1,0.6,1.4,0.8c0.4,0.2,0.9,0.2,1.3,0.2
		c0.8,0,1.2-0.3,1.2-0.8c0-0.2-0.1-0.3-0.2-0.5c-0.2-0.2-0.5-0.3-1.1-0.6c-0.6-0.2-1.1-0.4-1.4-0.6c-0.4-0.2-0.7-0.5-0.9-0.8
		c-0.3-0.3-0.4-0.8-0.4-1.3c0-0.7,0.3-1.3,0.8-1.7c0.6-0.4,1.3-0.6,2.3-0.6C32.5,114.6,33.4,114.8,34.4,115.3L34.4,115.3z
		 M42.2,114.6c1.4,0,2.5,0.4,3.4,1.3c0.9,0.8,1.3,1.8,1.3,2.9c0,1.1-0.4,2.1-1.3,2.9c-0.9,0.8-2,1.2-3.3,1.2c-1.4,0-2.5-0.4-3.4-1.2
		c-0.9-0.8-1.3-1.8-1.3-2.9c0-1.1,0.4-2.1,1.3-2.9C39.7,115,40.8,114.6,42.2,114.6L42.2,114.6z M42.2,121.3c0.8,0,1.4-0.2,1.9-0.7
		c0.5-0.5,0.7-1.1,0.7-1.8c0-0.7-0.2-1.3-0.7-1.8c-0.5-0.5-1.1-0.7-1.9-0.7c-0.8,0-1.4,0.2-1.9,0.7c-0.5,0.5-0.7,1.1-0.7,1.8
		c0,0.7,0.2,1.3,0.7,1.8C40.8,121.1,41.4,121.3,42.2,121.3L42.2,121.3z M58.4,114.7v8.1h-1.7l-4.5-5.2v5.2h-2v-8.1H52l4.3,5v-5H58.4
		L58.4,114.7z M66.8,114.7l3.6,8.1h-2.2l-0.7-1.6h-3.6l-0.6,1.6h-2.1l3.3-8.1H66.8L66.8,114.7z M66.9,119.8l-1.3-3.2l-1.2,3.2H66.9
		L66.9,119.8z M79.4,121.4v1.5h-6.2v-8.1h2v6.6H79.4L79.4,121.4z M87.7,114.7v8.1h-2v-8.1H87.7L87.7,114.7z M99.7,114.7v8.1H98
		l-4.5-5.2v5.2h-2v-8.1h1.9l4.3,5v-5H99.7L99.7,114.7z M105.5,114.7v7.4c0,2.1-1,3.1-2.9,3.1c-0.2,0-0.4,0-0.6,0v-1.6
		c0.1,0,0.2,0,0.3,0c0.8,0,1.1-0.5,1.1-1.5v-7.4H105.5L105.5,114.7z M115.2,114.7h2v4.6c0,1.2-0.4,2.1-1.1,2.7
		c-0.7,0.6-1.7,0.9-3,0.9c-1.3,0-2.3-0.3-3-0.9c-0.7-0.6-1.1-1.5-1.1-2.7v-4.6h2v4.7c0,0.6,0.2,1,0.6,1.4c0.4,0.3,0.9,0.5,1.5,0.5
		c0.6,0,1.1-0.2,1.5-0.5c0.4-0.3,0.6-0.8,0.6-1.5V114.7L115.2,114.7z M120.8,114.7h3.6c0.8,0,1.4,0.2,1.9,0.7c0.5,0.5,0.7,1,0.7,1.7
		c0,0.9-0.5,1.6-1.4,2c0.4,0.2,0.8,0.7,1.2,1.5c0.4,0.8,0.7,1.6,1.1,2.3h-2.2c-0.1-0.3-0.4-0.8-0.7-1.5c-0.3-0.8-0.6-1.2-0.8-1.4
		c-0.2-0.2-0.5-0.3-0.7-0.3h-0.6v3.3h-2V114.7L120.8,114.7z M122.8,116.2v1.8h1.1c0.3,0,0.6-0.1,0.8-0.2c0.2-0.2,0.3-0.4,0.3-0.7
		c0-0.6-0.4-0.9-1.1-0.9H122.8L122.8,116.2z M131.8,122.9v-3.8l-3.2-4.3h2.4l1.8,2.6l1.8-2.6h2.4l-3.2,4.3v3.8H131.8L131.8,122.9z
		 M146.6,114.7l3.6,8.1H148l-0.7-1.6h-3.6l-0.6,1.6H141l3.3-8.1H146.6L146.6,114.7z M146.8,119.8l-1.3-3.2l-1.2,3.2H146.8
		L146.8,119.8z M158.9,114.7v1.5H156v6.6h-2v-6.6H151v-1.5H158.9L158.9,114.7z M169.3,114.7v1.5h-2.9v6.6h-2v-6.6h-2.9v-1.5H169.3
		L169.3,114.7z M175.9,114.6c1.4,0,2.5,0.4,3.4,1.3c0.9,0.8,1.3,1.8,1.3,2.9c0,1.1-0.4,2.1-1.3,2.9c-0.9,0.8-2,1.2-3.3,1.2
		c-1.4,0-2.5-0.4-3.4-1.2c-0.9-0.8-1.3-1.8-1.3-2.9c0-1.1,0.4-2.1,1.3-2.9C173.4,115,174.5,114.6,175.9,114.6L175.9,114.6z
		 M175.9,121.3c0.8,0,1.4-0.2,1.9-0.7c0.5-0.5,0.7-1.1,0.7-1.8c0-0.7-0.2-1.3-0.7-1.8c-0.5-0.5-1.1-0.7-1.9-0.7
		c-0.8,0-1.4,0.2-1.9,0.7c-0.5,0.5-0.7,1.1-0.7,1.8c0,0.7,0.2,1.3,0.7,1.8C174.5,121.1,175.1,121.3,175.9,121.3L175.9,121.3z
		 M183.9,114.7h3.6c0.8,0,1.4,0.2,1.9,0.7c0.5,0.5,0.7,1,0.7,1.7c0,0.9-0.5,1.6-1.4,2c0.4,0.2,0.8,0.7,1.2,1.5
		c0.4,0.8,0.7,1.6,1.1,2.3h-2.2c-0.1-0.3-0.4-0.8-0.7-1.5c-0.3-0.8-0.6-1.2-0.8-1.4c-0.2-0.2-0.5-0.3-0.7-0.3h-0.6v3.3h-2V114.7
		L183.9,114.7z M185.9,116.2v1.8h1.1c0.3,0,0.6-0.1,0.8-0.2c0.2-0.2,0.3-0.4,0.3-0.7c0-0.6-0.4-0.9-1.1-0.9H185.9L185.9,116.2z
		 M202,114.7v8.1h-1.7l-4.5-5.2v5.2h-2v-8.1h1.9l4.3,5v-5H202L202,114.7z M211.6,121.4v1.5h-6v-8.1h5.9v1.5h-3.9v1.7h3.7v1.5h-3.7
		v1.9H211.6L211.6,121.4z M217.3,122.9v-3.8l-3.2-4.3h2.4l1.8,2.6l1.8-2.6h2.4l-3.2,4.3v3.8H217.3L217.3,122.9z M230.4,115.3v1.6
		c-1.1-0.5-1.9-0.7-2.6-0.7c-0.4,0-0.7,0.1-0.9,0.2c-0.2,0.1-0.3,0.3-0.3,0.5c0,0.2,0.1,0.3,0.2,0.4c0.2,0.1,0.5,0.3,1.1,0.5
		c0.6,0.2,1.1,0.4,1.4,0.6c0.4,0.2,0.7,0.5,0.9,0.8c0.3,0.3,0.4,0.8,0.4,1.3c0,0.8-0.3,1.4-0.9,1.8c-0.6,0.4-1.3,0.7-2.3,0.7
		c-1,0-2-0.3-2.9-0.8v-1.7c0.5,0.4,1,0.6,1.4,0.8c0.4,0.2,0.9,0.2,1.3,0.2c0.8,0,1.2-0.3,1.2-0.8c0-0.2-0.1-0.3-0.2-0.5
		c-0.2-0.2-0.5-0.3-1.1-0.6c-0.6-0.2-1.1-0.4-1.4-0.6c-0.4-0.2-0.7-0.5-0.9-0.8c-0.3-0.3-0.4-0.8-0.4-1.3c0-0.7,0.3-1.3,0.8-1.7
		c0.6-0.4,1.3-0.6,2.3-0.6C228.5,114.6,229.4,114.8,230.4,115.3L230.4,115.3z"/>
</g>
</svg>
