<?xml version="1.0" encoding="utf-8"?>
<!-- Generator: Adobe Illustrator 23.0.1, SVG Export Plug-In . SVG Version: 6.00 Build 0)  -->
<svg version="1.1" id="Layer_1" xmlns="http://www.w3.org/2000/svg" xmlns:xlink="http://www.w3.org/1999/xlink" x="0px" y="0px"
	 width="63.6px" height="56.3px" viewBox="0 0 63.6 56.3" style="enable-background:new 0 0 63.6 56.3;" xml:space="preserve">
<style type="text/css">
	.st0{fill:#FFFFFF;}
	.st1{fill:#EA434A;}
	.st2{fill:#19204B;}
	.st3{fill:#6190CB;}
</style>
<g>
	<path class="st0" d="M0,37.5c0.7,0.2,0.9-0.3,1.1-0.8C4,31,6.9,25.2,9.8,19.4c0.1-0.1,0.1-0.3,0.2-0.5c-0.2-0.1-0.3-0.1-0.4-0.2
		c-1-0.4-1.6-1.4-1.6-2.5c0-1,0.7-1.9,1.7-2.3c1-0.4,2.1-0.1,2.8,0.8c0.3,0.3,0.5,0.3,0.9,0.3c2.6-0.3,4.9-1.4,7-2.8
		c1.8-1.2,3.7-2.4,5.9-2.9c5.4-1.3,10.6-0.9,15.4,2c1.2,0.7,2.4,1.5,3.7,2.2c1.5,0.8,3.2,1.3,4.9,1.5c0.3,0,0.4,0,0.6-0.2
		c0.7-1,1.8-1.3,2.8-0.9c1,0.3,1.7,1.3,1.7,2.4c0,1-0.6,2-1.6,2.4c-0.1,0-0.2,0.1-0.3,0.1c0.4,0.9,0.8,1.7,1.3,2.5
		c2.6,5.1,5.2,10.3,7.8,15.4c0.2,0.4,0.4,0.7,1.1,0.5c-0.1,0.5-0.2,0.9-0.4,1.3c-0.4,0.8-1,1.4-1.8,1.8c-1.7,1.1-3.7,1.6-5.7,1.9
		c-3.1,0.4-6.1,0.2-9.1-0.8c-1.3-0.4-2.5-1-3.4-2.1c-0.5-0.6-0.9-1.2-0.9-2c0.7,0.2,0.9-0.3,1.1-0.7c2.9-5.8,5.8-11.5,8.7-17.3
		c0.1-0.1,0.1-0.3,0.2-0.4c-1-0.1-1.9-0.1-2.9-0.2c-2.7-0.3-5.1-1.3-7.4-2.7c-1.5-0.9-3.1-1.8-4.7-2.7c-0.2-0.1-0.4-0.2-0.7-0.3
		c-1.1,10.5-2.3,21-3.4,31.5c0.4,0,0.7,0,1.1,0c0.9,0,1.9,0,2.8,0c0.4,0,0.6,0.2,0.6,0.6c0,0.9,0,1.9,0.2,2.8
		c0.6,2.2,2.1,3.4,4.3,3.8c0.1,0,0.3,0.1,0.4,0.1c0,1.4,0,2.8,0,4.3c-7.4,0-14.8,0-22.2,0c0-1.4,0-2.8,0-4.3c0.3,0,0.6-0.1,0.9-0.2
		c2.4-0.5,4.1-2.6,4.1-5.1c0-0.5,0-0.9,0-1.4c0-0.4,0.2-0.6,0.6-0.6c1.2,0,2.4,0,3.5,0c0.1,0,0.2,0,0.4,0c-1.1-10.5-2.3-21-3.4-31.5
		c-1.3,0.4-2.4,1.1-3.5,1.7c-1.5,0.9-3.1,1.9-4.7,2.6c-2.1,1-4.5,1.4-6.8,1.4c-0.2,0-0.4,0-0.6,0c0.1,0.2,0.2,0.4,0.2,0.5
		c2.9,5.8,5.8,11.6,8.8,17.4c0.2,0.4,0.3,0.9,1,0.6c0.1,0.7-0.1,1.1-0.4,1.6c-0.5,0.8-1.3,1.3-2.1,1.8c-1.9,1-3.9,1.5-6,1.7
		c-3,0.3-6,0-8.8-1.1c-1.1-0.4-2.2-1-3-2C0.3,38.9,0,38.3,0,37.5z M18.9,37.5c-2.8-5.6-5.6-11.1-8.4-16.6C7.8,26.5,5,32,2.2,37.5
		C7.8,37.5,13.3,37.5,18.9,37.5z M61.3,37.5c-2.8-5.6-5.6-11.1-8.4-16.6c-2.8,5.6-5.6,11.1-8.4,16.6C50.2,37.5,55.7,37.5,61.3,37.5z
		"/>
	<path class="st0" d="M27.8,4.2c0.9-0.1,1.8-0.3,2.6-0.4c1.6-0.1,3.2,0,4.8,0.3c0.5,0.1,0.6,0.3,0.5,0.7c-0.4,1.8-2,3.1-3.8,3.2
		c-1.8,0.1-3.5-1.2-3.9-3C27.9,4.7,27.8,4.5,27.8,4.2z"/>
	<path class="st0" d="M35.4,2.5c-1.2-0.1-2.4-0.3-3.7-0.3c-1.2,0-2.4,0.2-3.6,0.3C28.4,1.2,30,0,31.6,0C33.3,0,35,1,35.4,2.5z"/>
</g>
</svg>
