<svg version="1.1" id="selling_points_white_01" xmlns="http://www.w3.org/2000/svg" xmlns:xlink="http://www.w3.org/1999/xlink" x="0px" y="0px"
	 width="49.7px" height="69px" viewBox="0 0 49.7 69" style="enable-background:new 0 0 49.7 69;" xml:space="preserve">
<style type="text/css">
	.selling_points_white_01-st0{fill:#FFFFFF;}
	.selling_points_white_01-st1{fill:#EA434A;}
	.selling_points_white_01-st2{fill:#19204B;}
	.selling_points_white_01-st3{fill:#EA444B;}
	.selling_points_white_01-st4{fill:#6190CB;}
</style>
<g>
	<path class="selling_points_white_01-st0" d="M46.2,60.3v-4.7h-1.9c-2.5,0-5-4-6.4-10.4H39v-6.3h-2c-0.2-1.9-0.3-3.9-0.3-5.8c0-1.7,0.1-3.4,0.2-5h2.9v-6.2
		h-2c1.4-6.8,4-11.3,6.6-11.3h0.9V0H35.1v4.4h-5.1V0H19.6v4.4h-5.1V0H4.4v10.6h0.9c2.6,0,5.2,4.5,6.6,11.3h-1.9v6.2h2.7
		c0.1,1.7,0.2,3.3,0.2,5c0,2-0.1,3.9-0.3,5.8h-2.6v6.3h1.7c-1.4,6.3-3.9,10.4-6.4,10.4H3.7v4.7H0V69h49.7v-8.7H46.2z M6.2,8.8V1.8
		h6.6v4.4h8.6V1.8h6.9v4.4h8.6V1.8h6.6v7.1H6.2z M9,10.6h31.7c-2,2.1-3.7,6-4.7,11.3h-0.1h-22h-0.1C12.7,16.6,11,12.7,9,10.6z
		 M12.6,26.3h-0.8v-2.6h0.4h1.6h22h1.6H38v2.6h-1h-1.9H14.5H12.6z M14.6,28.1h20.6c-0.1,1.7-0.2,3.3-0.2,5c0,2,0.1,3.9,0.3,5.8H14.5
		c0.2-1.9,0.3-3.9,0.3-5.8C14.8,31.4,14.7,29.7,14.6,28.1z M11.8,40.7h0.7h1.9h20.9h1.9h0.1v2.8H36H13.7h-1.6h-0.3V40.7z M13.5,45.2
		h0.2H36h0.2c1,4.8,2.6,8.4,4.6,10.4H9C10.9,53.6,12.5,50.1,13.5,45.2z M5.4,57.4h39h0.1v2.9h-39V57.4z M48,67.3H1.8V62h1.9h42.6H48
		V67.3z"/>
</g>
</svg>
