<svg version="1.1" id="selling_points_04" xmlns="http://www.w3.org/2000/svg" xmlns:xlink="http://www.w3.org/1999/xlink" x="0px" y="0px"
	 width="74.9px" height="74.2px" viewBox="0 0 74.9 74.2" style="enable-background:new 0 0 74.9 74.2;" xml:space="preserve">
<style type="text/css">
	.selling_points_04-st0{fill:#FFFFFF;}
	.selling_points_04-st1{fill:#EA434A;}
	.selling_points_04-st2{fill:#19204B;}
	.selling_points_04-st3{fill:#EA444B;}
	.selling_points_04-st4{fill:#6190CB;}
</style>
<g>
	<path class="selling_points_04-st0" d="M41.4,19.8l12.8-0.3c0,0,7.8,16.3,14.9,23c0,0,17.4,22.7-16.8,31.3l-17.6-2.3l-0.3-27.7l-8.7-0.2L41.4,19.8z"
		/>
	<rect x="2.6" y="5.6" class="selling_points_04-st3" width="1.8" height="6.8"/>
	<rect x="2.6" y="14.3" class="selling_points_04-st3" width="1.8" height="2.5"/>
	<rect x="6.7" class="selling_points_04-st3" width="1.8" height="6.8"/>
	<rect x="6.7" y="8.7" class="selling_points_04-st3" width="1.8" height="2.5"/>
	<rect x="10.7" y="7.1" class="selling_points_04-st3" width="1.8" height="6.8"/>
	<rect x="10.7" y="15.8" class="selling_points_04-st3" width="1.8" height="2.5"/>
	<path class="selling_points_04-st3" d="M43.2,50.8v2c0,1.6,1.3,2.9,2.9,2.9h1.2v1.4h1.8v-1.4h1.2c1.6,0,2.9-1.3,2.9-2.9v-4.1c0-1.6-1.3-2.9-2.9-2.9
		H46c-0.6,0-1.1-0.5-1.1-1.1v-4.1c0-0.6,0.5-1.1,1.1-1.1h4.1c0.6,0,1.1,0.5,1.1,1.1v2H53v-2c0-1.6-1.3-2.9-2.9-2.9h-1.2v-1.4h-1.8
		v1.4H46c-1.6,0-2.9,1.3-2.9,2.9v4.1c0,1.6,1.3,2.9,2.9,2.9h4.1c0.6,0,1.1,0.5,1.1,1.1v4.1c0,0.6-0.5,1.1-1.1,1.1H46
		c-0.6,0-1.1-0.5-1.1-1.1v-2H43.2z"/>
	<rect x="37.7" y="46.3" class="selling_points_04-st3" width="2.3" height="1.8"/>
	<rect x="55.5" y="46.3" class="selling_points_04-st3" width="2.3" height="1.8"/>
	<g>
		<rect x="0" y="22" class="selling_points_04-st3" width="16.5" height="7"/>
		<rect x="1.8" y="23.7" class="selling_points_04-st0" width="13" height="3.4"/>
	</g>
	<g>
		<polygon class="selling_points_04-st3" points="16.6,46.7 31.4,46.7 31.4,51.4 31.4,57.8 31.4,60.8 31.4,67.2 31.4,71.8 16.6,71.8 14.8,71.8 0,71.8 
			0,67.2 0,65.3 0,62.5 0,62.5 0,61.6 0,45 0,42 0,32.6 16.6,32.6 16.6,42 		"/>
		<rect x="1.8" y="67.2" class="selling_points_04-st0" width="13" height="2.8"/>
		<polygon class="selling_points_04-st0" points="14.8,62.5 1.8,62.5 1.8,65.3 1.8,65.5 14.8,65.5 		"/>
		<polygon class="selling_points_04-st0" points="14.8,57.8 1.9,57.8 1.8,60.8 14.8,60.8 		"/>
		<rect x="1.8" y="53.1" class="selling_points_04-st0" width="13" height="2.9"/>
		<rect x="1.9" y="48.4" class="selling_points_04-st0" width="12.9" height="2.9"/>
		<polygon class="selling_points_04-st0" points="14.8,43.7 1.8,43.7 1.8,43.8 1.8,46.7 14.8,46.7 		"/>
		<rect x="1.8" y="39" class="selling_points_04-st0" width="13" height="2.9"/>
		<rect x="1.8" y="34.3" class="selling_points_04-st0" width="13" height="2.9"/>
		<rect x="16.6" y="67.2" class="selling_points_04-st0" width="13" height="2.8"/>
		<rect x="16.6" y="62.5" class="selling_points_04-st0" width="13" height="2.9"/>
		<rect x="16.6" y="57.8" class="selling_points_04-st0" width="13" height="2.9"/>
		<rect x="16.6" y="53.1" class="selling_points_04-st0" width="13" height="2.9"/>
		<rect x="16.6" y="48.4" class="selling_points_04-st0" width="13" height="2.9"/>
	</g>
	<g>
		<path class="selling_points_04-st3" d="M73.3,62.2c-3.6,7.7-12.9,12-25.5,12c-5,0-9.2-0.6-13.1-2l0-1.9c3.7,1.3,8.2,2.1,13.1,2.1
			c11.9,0,20.6-4,23.9-11c2.8-5.8,1.4-12.9-3.8-19.3c-10.1-12.4-13.4-19.9-14.3-22H42c-0.8,2.1-4.2,9.6-14.3,22
			c-0.5,0.6-0.7,0.9-1.1,1.5l-2.1,0c0.5-0.7,1.3-1.9,1.9-2.6c9.2-11.3,12.7-18.5,13.8-21c-1.4-0.4-2.4-1.7-2.4-3.3
			c0-1.9,1.5-3.4,3.4-3.4h0.4l-3.9-7.1C36.9,5,37,3.5,37.7,2.3c0.7-1.2,2-1.9,3.4-1.9h13.4c1.4,0,2.7,0.7,3.4,1.9
			C58.6,3.5,58.6,5,58,6.2l-3.9,7.1h0.4c1.9,0,3.4,1.5,3.4,3.4c0,1.5-1,2.8-2.4,3.3c1.1,2.5,4.6,9.7,13.8,21
			C74.9,48,76.4,55.7,73.3,62.2z"/>
		<path class="selling_points_04-st0" d="M43.5,13.3h8.6l4.3-7.9c0.4-0.7,0.4-1.5,0-2.2c-0.4-0.7-1.1-1.1-1.9-1.1H41.1c-0.8,0-1.5,0.4-1.9,1.1
			c-0.4,0.7-0.4,1.5,0,2.2L43.5,13.3z"/>
		<path class="selling_points_04-st0" d="M54.5,18.4c0.9,0,1.6-0.7,1.6-1.6c0-0.9-0.7-1.6-1.6-1.6h-1.3H42.4h-1.3c-0.9,0-1.6,0.7-1.6,1.6
			c0,0.9,0.7,1.6,1.6,1.6H54.5z"/>
	</g>
</g>
</svg>
