<svg version="1.1" id="selling_points_01" xmlns="http://www.w3.org/2000/svg" xmlns:xlink="http://www.w3.org/1999/xlink" x="0px" y="0px"
	 width="49.7px" height="69px" viewBox="0 0 49.7 69" style="enable-background:new 0 0 49.7 69;" xml:space="preserve">
<style type="text/css">
	.selling_points_01-st0{fill:#FFFFFF;}
	.selling_points_01-st1{fill:#EA434A;}
	.selling_points_01-st2{fill:#19204B;}
	.selling_points_01-st3{fill:#EA444B;}
	.selling_points_01-st4{fill:#6190CB;}
</style>
<g>
	<path class="selling_points_01-st3" d="M46.2,60.3v-4.7h-1.9c-2.5,0-5-4-6.4-10.4H39v-6.3h-2c-0.2-1.9-0.3-3.9-0.3-5.8c0-1.7,0.1-3.4,0.2-5h2.9v-6.2
		h-2c1.4-6.8,4-11.3,6.6-11.3h0.9V0H35.1v4.4h-5.1V0H19.6v4.4h-5.1V0H4.4v10.6h0.9c2.6,0,5.2,4.5,6.6,11.3h-1.9v6.2h2.7
		c0.1,1.7,0.2,3.3,0.2,5c0,2-0.1,3.9-0.3,5.8h-2.6v6.3h1.7c-1.4,6.3-3.9,10.4-6.4,10.4H3.7v4.7H0V69h49.7v-8.7H46.2z"/>
	<polygon class="selling_points_01-st0" points="6.2,1.8 12.8,1.8 12.8,6.2 21.4,6.2 21.4,1.8 28.3,1.8 28.3,6.2 36.9,6.2 36.9,1.8 43.5,1.8 43.5,8.8 
		6.2,8.8 	"/>
	<path class="selling_points_01-st0" d="M9,10.6h31.7c-2,2.1-3.7,6-4.7,11.3h-0.1h-22h-0.1C12.7,16.6,11,12.7,9,10.6z"/>
	<polygon class="selling_points_01-st0" points="11.8,26.3 11.8,23.7 12.3,23.7 13.9,23.7 35.8,23.7 37.4,23.7 38,23.7 38,26.3 37.1,26.3 35.2,26.3 
		14.5,26.3 12.6,26.3 	"/>
	<path class="selling_points_01-st0" d="M14.6,28.1h20.6c-0.1,1.7-0.2,3.3-0.2,5c0,2,0.1,3.9,0.3,5.8H14.5c0.2-1.9,0.3-3.9,0.3-5.8
		C14.8,31.4,14.7,29.7,14.6,28.1z"/>
	<polygon class="selling_points_01-st0" points="11.8,40.7 12.5,40.7 14.4,40.7 35.3,40.7 37.2,40.7 37.3,40.7 37.3,43.5 36,43.5 13.7,43.5 12.1,43.5 
		11.8,43.5 	"/>
	<path class="selling_points_01-st0" d="M13.5,45.2h0.2H36h0.2c1,4.8,2.6,8.4,4.6,10.4H9C10.9,53.6,12.5,50.1,13.5,45.2z"/>
	<polygon class="selling_points_01-st0" points="5.4,57.4 44.4,57.4 44.5,57.4 44.5,60.3 5.4,60.3 	"/>
	<polygon class="selling_points_01-st0" points="48,67.3 1.8,67.3 1.8,62 3.7,62 46.2,62 48,62 	"/>
</g>
</svg>
