<?xml version="1.0" encoding="utf-8"?>
<!-- Generator: Adobe Illustrator 23.0.1, SVG Export Plug-In . SVG Version: 6.00 Build 0)  -->
<svg version="1.1" id="Layer_1" xmlns="http://www.w3.org/2000/svg" xmlns:xlink="http://www.w3.org/1999/xlink" x="0px" y="0px"
	 width="74.9px" height="74.2px" viewBox="0 0 74.9 74.2" style="enable-background:new 0 0 74.9 74.2;" xml:space="preserve">
<style type="text/css">
	.st0{fill:#FFFFFF;}
	.st1{fill:#EA434A;}
	.st2{fill:#19204B;}
	.st3{fill:#EA444B;}
	.st4{fill:#6190CB;}
</style>
<g>
	<rect x="2.6" y="5.6" class="st0" width="1.8" height="6.8"/>
	<rect x="2.6" y="14.3" class="st0" width="1.8" height="2.5"/>
	<rect x="6.7" class="st0" width="1.8" height="6.8"/>
	<rect x="6.7" y="8.7" class="st0" width="1.8" height="2.5"/>
	<rect x="10.7" y="7.1" class="st0" width="1.8" height="6.8"/>
	<rect x="10.7" y="15.8" class="st0" width="1.8" height="2.5"/>
	<path class="st0" d="M43.2,50.8v2c0,1.6,1.3,2.9,2.9,2.9h1.2v1.4h1.8v-1.4h1.2c1.6,0,2.9-1.3,2.9-2.9v-4.1c0-1.6-1.3-2.9-2.9-2.9
		H46c-0.6,0-1.1-0.5-1.1-1.1v-4.1c0-0.6,0.5-1.1,1.1-1.1h4.1c0.6,0,1.1,0.5,1.1,1.1v2H53v-2c0-1.6-1.3-2.9-2.9-2.9h-1.2v-1.4h-1.8
		v1.4H46c-1.6,0-2.9,1.3-2.9,2.9v4.1c0,1.6,1.3,2.9,2.9,2.9h4.1c0.6,0,1.1,0.5,1.1,1.1v4.1c0,0.6-0.5,1.1-1.1,1.1H46
		c-0.6,0-1.1-0.5-1.1-1.1v-2H43.2z"/>
	<rect x="37.7" y="46.3" class="st0" width="2.3" height="1.8"/>
	<rect x="55.5" y="46.3" class="st0" width="2.3" height="1.8"/>
	<path class="st0" d="M16.6,22H0v7h16.5V22z M14.8,27.1h-13v-3.4h13V27.1z"/>
	<path class="st0" d="M16.6,42v-9.4H0V42v3v16.7l0,0.9h0v2.8v1.9v4.6h14.8h1.8h14.8v-4.6v-6.5v-2.9v-6.5v-4.7H16.6V42z M14.8,70.1
		h-13v-2.8h13V70.1z M14.8,65.5h-13v-0.1v-2.8h13V65.5z M14.8,60.8h-13l0.1-2.9h12.9V60.8z M14.8,56.1h-13v-2.9h13V56.1z M14.8,51.4
		H1.9v-2.9h12.9V51.4z M14.8,46.7h-13v-2.9l0,0h13V46.7z M14.8,42h-13V39h13V42z M14.8,37.3h-13v-2.9h13V37.3z M29.6,70.1h-13v-2.8
		h13V70.1z M29.6,65.5h-13v-2.9h13V65.5z M29.6,60.8h-13v-2.9h13V60.8z M29.6,56.1h-13v-2.9h13V56.1z M29.6,48.4v2.9h-13v-2.9H29.6z
		"/>
	<path class="st0" d="M69.2,41C60,29.7,56.5,22.5,55.4,20c1.4-0.4,2.4-1.7,2.4-3.3c0-1.9-1.5-3.4-3.4-3.4h-0.4L58,6.2
		c0.7-1.2,0.7-2.7-0.1-3.9c-0.7-1.2-2-1.9-3.4-1.9H41.1c-1.4,0-2.7,0.7-3.4,1.9C37,3.5,36.9,5,37.6,6.2l3.9,7.1h-0.4
		c-1.9,0-3.4,1.5-3.4,3.4c0,1.5,1,2.8,2.4,3.3c-1.1,2.5-4.6,9.7-13.8,21c-0.5,0.7-1.4,1.9-1.9,2.6l2.1,0c0.4-0.6,0.6-0.9,1.1-1.5
		c10.1-12.4,13.4-19.9,14.3-22h11.6c0.8,2.1,4.2,9.6,14.3,22c5.2,6.4,6.6,13.5,3.8,19.3c-3.3,7-12.1,11-23.9,11
		c-4.8,0-9.3-0.7-13.1-2.1l0,1.9c3.9,1.4,8.1,2,13.1,2c12.6,0,21.9-4.4,25.5-12C76.4,55.7,74.9,48,69.2,41z M39.2,5.4
		c-0.4-0.7-0.4-1.5,0-2.2c0.4-0.7,1.1-1.1,1.9-1.1h13.4c0.8,0,1.5,0.4,1.9,1.1c0.4,0.7,0.4,1.5,0,2.2l-4.3,7.9h-8.6L39.2,5.4z
		 M41.1,18.4c-0.9,0-1.6-0.7-1.6-1.6c0-0.9,0.7-1.6,1.6-1.6h1.3h10.7h1.3c0.9,0,1.6,0.7,1.6,1.6c0,0.9-0.7,1.6-1.6,1.6H41.1z"/>
</g>
</svg>
