<svg version="1.1" id="selling_points_03" xmlns="http://www.w3.org/2000/svg" xmlns:xlink="http://www.w3.org/1999/xlink" x="0px" y="0px"
	 width="86.1px" height="73.1px" viewBox="0 0 86.1 73.1" style="enable-background:new 0 0 86.1 73.1;" xml:space="preserve">
<style type="text/css">
	.selling_points_03-st0{fill:#FFFFFF;}
	.selling_points_03-st1{fill:#EA434A;}
	.selling_points_03-st2{fill:#19204B;}
	.selling_points_03-st3{fill:#EA444B;}
	.selling_points_03-st4{fill:#6190CB;}
</style>
<g>
	<g>
		<path class="selling_points_03-st0" d="M85.9,44.5l-6.4-15.9l-0.7-3.3C78.8,11.1,67.1,0,52.2,0c-3.2,0-6.2,0.6-9.1,1.6C40.2,0.6,37.1,0,34,0
			C19.1,0,7.4,11.1,7.3,25.4l-0.6,3.1L0.2,44.5c-0.4,0.9-0.3,2,0.3,2.8C1.1,48.2,2,48.7,3,48.7h5.9v7.9c0,3,2.4,5.4,5.4,5.4h7.5
			v11.1h42.3V62h7.5c3,0,5.4-2.4,5.4-5.4v-7.9h5.9c1,0,1.9-0.5,2.5-1.3C86.2,46.5,86.3,45.5,85.9,44.5z"/>
	</g>
	<g>
		<path class="selling_points_03-st3" d="M85.9,44.5l-6.4-15.9l-0.7-3.3C78.8,11.1,67.1,0,52.2,0c-3.2,0-6.2,0.6-9.1,1.6C40.2,0.6,37.1,0,34,0
			C19.1,0,7.4,11.1,7.3,25.4l-0.6,3.1L0.2,44.5c-0.4,0.9-0.3,2,0.3,2.8C1.1,48.2,2,48.7,3,48.7h5.9v7.9c0,3,2.4,5.4,5.4,5.4h7.5
			v11.1h1.8V60.2h-9.3c-2,0-3.6-1.6-3.6-3.6v-9.7H3c-0.4,0-0.8-0.2-1-0.5c-0.2-0.3-0.3-0.8-0.1-1.1L8.4,29l0.7-3.3l0-0.2
			C9.1,12.2,20,1.8,34,1.8c2.2,0,4.4,0.3,6.5,0.9C37,4.4,34,6.9,31.5,10L31,10.7l1.4,1.1l0.6-0.7c2.7-3.4,6.2-6,10.1-7.5
			c4.2,1.7,8,4.5,10.7,8.3l0.5,0.7l1.5-1.1l-0.5-0.7c-2.5-3.5-5.9-6.2-9.6-8.1c2.1-0.6,4.3-0.9,6.6-0.9C66.1,1.8,77,12.2,77,25.5
			l0.8,3.7l6.5,16.1c0.2,0.4,0.1,0.8-0.1,1.1c-0.2,0.3-0.6,0.5-1,0.5h-7.7v9.7c0,2-1.6,3.6-3.6,3.6h-9.3v12.9h1.8V62h7.5
			c3,0,5.4-2.4,5.4-5.4v-7.9h5.9c1,0,1.9-0.5,2.5-1.3C86.2,46.5,86.3,45.5,85.9,44.5z"/>
		<path class="selling_points_03-st3" d="M49.4,29.5h-5.3l2.8-12c0.1-0.4-0.1-0.9-0.6-1.1c-0.4-0.2-0.9,0-1.1,0.4l-9.3,17.9c-0.1,0.3-0.1,0.6,0,0.9
			c0.2,0.3,0.5,0.4,0.8,0.4H42l-2.8,12c-0.1,0.4,0.1,0.9,0.6,1.1c0.1,0,0.2,0.1,0.3,0.1c0.3,0,0.6-0.2,0.8-0.5l9.3-17.9
			c0.1-0.3,0.1-0.6,0-0.9C50,29.7,49.7,29.5,49.4,29.5z M42.6,41.5l1.4-6c0.1-0.3,0-0.6-0.2-0.8c-0.2-0.2-0.4-0.3-0.7-0.3h-4.9
			l5.3-10.1l-1.4,6c-0.1,0.3,0,0.6,0.2,0.8c0.2,0.2,0.4,0.3,0.7,0.3h4.9L42.6,41.5z"/>
	</g>
</g>
</svg>
