<?xml version="1.0" encoding="utf-8"?>
<!-- Generator: Adobe Illustrator 23.0.1, SVG Export Plug-In . SVG Version: 6.00 Build 0)  -->
<svg version="1.1" id="Layer_1" xmlns="http://www.w3.org/2000/svg" xmlns:xlink="http://www.w3.org/1999/xlink" x="0px" y="0px"
	 width="88.8px" height="69px" viewBox="0 0 88.8 69" style="enable-background:new 0 0 88.8 69;" xml:space="preserve">
<style type="text/css">
	.st0{fill:#FFFFFF;}
	.st1{fill:#EA434A;}
	.st2{fill:#19204B;}
	.st3{fill:#EA444B;}
	.st4{fill:#6190CB;}
</style>
<g>
	<path class="st0" d="M66,0L54.5,11.5l2.7,2.7L55.4,16c-0.4,0.4-0.9,0.6-1.4,0.6L47.5,17c-0.8,0.1-1.6,0.4-2.1,1l-1.6,1.6l-0.7-0.7
		c-0.5-0.5-1.2-0.8-2-0.9l-4.2-0.1c-0.5,0-0.9-0.2-1.2-0.5l-2.7-2.7l1.5-1.5L22.9,1.7L0,24.5l11.5,11.5l2.9-2.9l1,1
		c0.2,0.2,0.4,0.5,0.4,0.8l0.5,3.4c0.1,0.9,0.6,1.8,1.3,2.5l3.5,3.5l-2,2C18.4,47.1,18,48,18,49.1c0,1,0.4,2,1.1,2.7l0.4,0.4
		c0.7,0.7,1.7,1.1,2.7,1.1c0.1,0,0.1,0,0.2,0c0,1,0.3,2.1,1.1,2.9l0.4,0.4c0.7,0.7,1.7,1.1,2.7,1.1c0.1,0,0.1,0,0.2,0
		c0,1,0.3,2.1,1.1,2.9l0.4,0.4c0.7,0.7,1.7,1.1,2.7,1.1c0.1,0,0.1,0,0.2,0c0,1,0.3,2.1,1.1,2.9l0.4,0.4c0.7,0.7,1.7,1.1,2.7,1.1
		c1,0,2-0.4,2.7-1.1l2-2l4.1,4.1c1,1,2.4,1.6,3.7,1.6c1.3,0,2.6-0.5,3.5-1.4c1-1,1.5-2.2,1.4-3.6c0-0.2,0-0.5-0.1-0.7
		c0.3,0,0.5,0.1,0.8,0.1c1.3,0,2.6-0.5,3.6-1.5c1-1,1.5-2.2,1.5-3.6c0-0.2,0-0.5-0.1-0.7c0.2,0,0.5,0.1,0.7,0.1
		c1.3,0,2.6-0.5,3.6-1.5c1.2-1.2,1.6-2.8,1.4-4.3c0.2,0,0.5,0.1,0.7,0.1c1.3,0,2.6-0.5,3.6-1.5c1-1,1.5-2.2,1.5-3.6
		c0-1.2-0.5-2.4-1.3-3.3l2.7-2.7c0.7-0.7,1.1-1.7,1.2-2.7l0.1-1.9c0-0.3,0.1-0.6,0.4-0.8l2.6-2.6l1.6,1.6l11.5-11.5L66,0z
		 M14.4,30.3l-1.4,1.4l-1.4,1.4l-3.6-3.6l14-14l-1.4-1.4l-14,14l-3.6-3.6l20-20l8.7,8.7l-0.1,0.1l0,0L30,14.7l0,0L14.4,30.3z
		 M23.5,50.7c-0.7,0.7-1.9,0.7-2.6,0l-0.4-0.4C20.2,50,20,49.5,20,49.1c0-0.5,0.2-0.9,0.5-1.3l2-2l3,3L23.5,50.7z M27.9,55.1
		c-0.7,0.7-1.9,0.7-2.6,0l-0.4-0.4c-0.7-0.7-0.7-1.9,0-2.6l2-2l1.2,1.2l1.7,1.7L27.9,55.1z M32.3,59.5c-0.7,0.7-1.9,0.7-2.6,0
		l-0.4-0.4c-0.7-0.7-0.7-1.9,0-2.6l2-2l3,3L32.3,59.5z M36.7,63.9c-0.7,0.7-1.9,0.7-2.6,0l-0.4-0.4c-0.7-0.7-0.7-1.9,0-2.6l2-2l3,3
		L36.7,63.9z M71.7,34c-0.6,0.6-0.9,1.4-1,2.2l-0.1,1.9c0,0.5-0.2,1-0.6,1.3l-2.7,2.7L63.3,38l-1.4,1.4l5.2,5.2
		c0.6,0.6,0.9,1.3,0.9,2.1s-0.3,1.6-0.9,2.1c-1.1,1.1-3.1,1.1-4.3,0l-7.2-7.2l-1.4,1.4l7.2,7.2c1.2,1.2,1.2,3.1,0,4.3
		c-1.2,1.2-3.1,1.2-4.3,0L50,47.5l-1.4,1.4l7.2,7.2c0.6,0.6,0.9,1.3,0.9,2.1s-0.3,1.6-0.9,2.1c-1.1,1.1-3.1,1.1-4.3,0l-7.2-7.2
		l-1.4,1.4l7,7c0.6,0.6,1,1.4,1,2.2c0,0.8-0.3,1.6-0.9,2.2c-1.2,1.2-3.2,1.1-4.4-0.1l-4.1-4.1l-4.4-4.4h0l-4.4-4.4l0,0l-0.7-0.7
		l-0.8-0.8l0,0L29.7,50L19,39.4c-0.4-0.4-0.6-0.8-0.7-1.3l-0.5-3.4c-0.1-0.7-0.5-1.4-1-1.9l-1-1l15.7-15.7l2.7,2.7
		c0.7,0.7,1.6,1.1,2.6,1.1L41,20c0.2,0,0.5,0.1,0.6,0.3l0.7,0.7l-7.8,7.8c-1,1-1.5,2.2-1.5,3.6c0,1.4,0.5,2.6,1.5,3.6
		c1,1,2.2,1.5,3.6,1.5c1.4,0,2.6-0.5,3.6-1.5l7.9-7.9l1.9,0v0.9c0,3.8,3.1,6.8,6.8,6.8h1.7c3.8,0,6.8-3.1,6.8-6.8v-1h-2v1
		c0,2.7-2.2,4.8-4.8,4.8h-1.7c-2.7,0-4.8-2.2-4.8-4.8v-2.9l-4.8-0.1l-8.5,8.5c-1.2,1.2-3.2,1.2-4.4,0c-0.6-0.6-0.9-1.4-0.9-2.2
		c0-0.8,0.3-1.6,0.9-2.2l10.8-10.8c0.2-0.2,0.5-0.4,0.8-0.4l6.5-0.4c1-0.1,2-0.5,2.7-1.2l1.8-1.8l15.7,15.7L71.7,34z M77.2,31.4
		L77.2,31.4L75.8,30L60,14.2l0,0l-1.4-1.4l-1.3-1.3l3.6-3.6l14,14l1.4-1.4l-14-14L66,2.9l20,20l-8.7,8.7L77.2,31.4z"/>
</g>
</svg>
